<?xml version="1.0" encoding="utf-8"?>
<!-- Generator: Adobe Illustrator 16.0.0, SVG Export Plug-In . SVG Version: 6.00 Build 0)  -->
<!DOCTYPE svg PUBLIC "-//W3C//DTD SVG 1.1//EN" "http://www.w3.org/Graphics/SVG/1.1/DTD/svg11.dtd">
<svg version="1.1" id="Calque_1" xmlns="http://www.w3.org/2000/svg" xmlns:xlink="http://www.w3.org/1999/xlink" x="0px" y="0px"
	 width="841.89px" height="595.28px" viewBox="0 0 841.89 595.28" enable-background="new 0 0 841.89 595.28" xml:space="preserve">
<path fill-rule="evenodd" clip-rule="evenodd" fill="#055579" d="M337.25,288.491l79.592-75.582c2.229-2.121,5.717-2.1,7.92,0
	l79.592,75.582c2.299,2.187,2.39,5.824,0.202,8.123c-2.187,2.298-5.823,2.389-8.122,0.202l-75.632-71.821l-75.632,71.821
	c-2.298,2.187-5.936,2.096-8.122-0.202C334.86,294.315,334.951,290.678,337.25,288.491L337.25,288.491z M424.805,241.265
	L424.805,241.265L424.805,241.265z M361.175,294.735l-1.015,0.977c-1.271,1.056-2.081,2.65-2.081,4.433v79.627
	c0,3.181,2.579,5.76,5.76,5.76h36.235v-53.916c0-3.182,2.579-5.76,5.76-5.76h29.936c3.182,0,5.761,2.578,5.761,5.76v53.916h36.234
	c3.181,0,5.76-2.579,5.76-5.76v-79.199h-0.023c-0.001-1.575-0.646-3.143-1.911-4.275l-1.679-1.502l-0.037-0.037l-55.035-53.459
	l-0.034-0.034c-2.213-2.155-5.75-2.179-7.99-0.024L361.175,294.735L361.175,294.735z"/>
</svg>
