<?xml version="1.0" encoding="utf-8"?>
<!-- Generator: Adobe Illustrator 16.0.0, SVG Export Plug-In . SVG Version: 6.00 Build 0)  -->
<!DOCTYPE svg PUBLIC "-//W3C//DTD SVG 1.1//EN" "http://www.w3.org/Graphics/SVG/1.1/DTD/svg11.dtd">
<svg version="1.1" id="Calque_1" xmlns="http://www.w3.org/2000/svg" xmlns:xlink="http://www.w3.org/1999/xlink" x="0px" y="0px"
	 width="841.89px" height="595.28px" viewBox="0 0 841.89 595.28" enable-background="new 0 0 841.89 595.28" xml:space="preserve">
<g>
	<g>
		<polygon fill="#FFFFFF" points="372.585,335.919 349.676,296.232 372.585,256.54 418.423,256.54 441.336,296.232 418.423,335.919 
					"/>
		<path fill="#B6CE35" d="M419.483,337.767h-47.955l-23.985-41.535l23.985-41.542h47.955l23.983,41.542L419.483,337.767z
			 M373.66,334.073h43.697l21.856-37.841l-21.856-37.848H373.66l-21.849,37.848L373.66,334.073z"/>
	</g>
	<g>
		<g>
			<path id="path1401-4-6_3_" inkscape:connector-curvature="0" sodipodi:nodetypes="cccccccsc" fill="#055579" d="M407.089,323.416
				h-21.406c-4.492-7.746-3.14-23.071,5.072-38.712h9.129c0,0,1.932,1.29,1.932,3.351c0,0-4.746,1.711-0.882,5.611
				c0,0-3.959,2.396-0.303,5.74c0,0-4.252,2.709,0.251,5.606C406.136,308.393,410.733,312.088,407.089,323.416z"/>
			<path id="path1404-7-3_3_" inkscape:connector-curvature="0" sodipodi:nodetypes="cccccccccc" fill="#055579" d="
				M391.656,282.569h8.346l-1.03-6.188l6.925-4.676h1.315v-4.248l-15.499-0.141l-2.984,4.389l3.973,4.676L391.656,282.569z"/>
			<path id="path1407-7-2_3_" inkscape:connector-curvature="0" sodipodi:nodetypes="ccscc" fill="#055579" d="M400.863,277.034
				l5.411-3.548c0.119,7.993,5.464,10.844,3.488,10.33c-4.23-1.097-5.635-6.782-5.635-6.782H400.863z"/>
			<path id="rect1409-5-0_3_" inkscape:connector-curvature="0" fill="#055579" d="M408.537,268.267h0.9v2.671h-0.9V268.267z"/>
		</g>
		<g>
			<path id="path1401-4-6_2_" inkscape:connector-curvature="0" sodipodi:nodetypes="cccccccsc" fill="#90BCD1" d="M403.598,325.836
				h-21.407c-4.49-7.737-3.14-23.067,5.068-38.712h9.138c0,0,1.924,1.29,1.924,3.355c0,0-4.746,1.707-0.888,5.611
				c0,0-3.943,2.395-0.294,5.735c0,0-4.262,2.709,0.246,5.61C402.642,310.819,407.236,314.513,403.598,325.836z"/>
			<path id="path1404-7-3_2_" inkscape:connector-curvature="0" sodipodi:nodetypes="cccccccccc" fill="#90BCD1" d="
				M388.157,284.986h8.353l-1.037-6.183l6.926-4.678h1.316v-4.248l-15.494-0.139l-2.986,4.387l3.973,4.678L388.157,284.986z"/>
			<path id="path1407-7-2_2_" inkscape:connector-curvature="0" sodipodi:nodetypes="ccscc" fill="#90BCD1" d="M397.368,279.465
				l5.414-3.562c0.117,7.996,5.463,10.846,3.484,10.335c-4.23-1.102-5.635-6.773-5.635-6.773H397.368z"/>
			<path id="rect1409-5-0_2_" inkscape:connector-curvature="0" fill="#90BCD1" d="M405.042,270.691h0.901v2.667h-0.901V270.691z"/>
		</g>
	</g>
</g>
<g>
	
		<path id="path829-6-4-9-69-4-0-3-0-9-3_3_" inkscape:export-filename="/home/gil/jobs/abeilles/pictos/s.png" inkscape:export-xdpi="222.39528" inkscape:export-ydpi="222.39528" fill="#055579" d="
		M295.252,259.327c21.626,0,39.149,17.534,39.149,39.152c0,21.623-17.523,39.152-39.149,39.152
		c-21.62,0-39.146-17.529-39.146-39.152C256.105,276.861,273.632,259.327,295.252,259.327z"/>
	
		<path id="path829-6-4-9-69-4-0-3-0-9-3_2_" inkscape:export-filename="/home/gil/jobs/abeilles/pictos/s.png" inkscape:export-xdpi="222.39528" inkscape:export-ydpi="222.39528" fill="#4DA0BC" d="
		M297.95,254.625c21.629,0,39.151,17.531,39.151,39.151c0,21.623-17.522,39.147-39.151,39.147
		c-21.623,0-39.143-17.524-39.143-39.147C258.808,272.156,276.328,254.625,297.95,254.625z"/>
	<g>
		<g>
			<path fill="#FFFFFF" d="M297.475,274.342c-1.705,1.205-3.122,0.276-3.122,0.276c-0.088-0.924-1.391-2.411-3.382-3.521
				c-2-1.115-0.514-1.16-0.514-2.694c0-1.531,0.881-1.574,1.579-1.901c0.688-0.323,0.599-1.711,1.39-1.577
				c0.785,0.141,2.128,2.088,2.128,2.088s0.328,0.372,0.364-0.428c0.04-0.801,1.047-0.242,1.556-1.496
				c0.511-1.251,1.816-0.069,2.896,0.59c1.083,0.664,1.018,3.409,1.018,3.409s0.018,1.233-0.944,1.718
				C300.444,270.806,297.659,272.073,297.475,274.342"/>
		</g>
		<g>
			<path fill="#FFFFFF" d="M314.575,316.995c3.71-0.51,0.837-2.873,0.837-2.873c-1.671-1.572-1.671-9.728-1.671-9.728
				c0.468-16.214-11.445-24.93-11.445-24.93c-0.637-0.455-1.314-0.915-2.027-1.368c0,0-2.018-1.076-2.368-2.399
				c-1.833,1.357-3.27,0.453-3.27,0.453c0.188,0.417,0.372,1.156-1.292,2.503c-0.624,0.5-2.432,1.886-4.432,4.143
				c-0.002,0-0.002,0-0.002,0c-0.074,0.087-0.155,0.175-0.227,0.265c-0.067,0.079-0.139,0.162-0.211,0.244
				c-0.085,0.101-0.177,0.207-0.26,0.305c-0.105,0.13-0.208,0.265-0.321,0.395c-0.061,0.083-0.13,0.168-0.2,0.251
				c-0.09,0.128-0.195,0.258-0.296,0.393c-0.067,0.094-0.143,0.193-0.217,0.29c-0.108,0.146-0.202,0.287-0.312,0.433
				c-0.05,0.079-0.11,0.157-0.168,0.24c-0.132,0.186-0.26,0.381-0.391,0.581c-0.044,0.067-0.087,0.13-0.132,0.202
				c-0.105,0.161-0.208,0.332-0.318,0.504c-0.041,0.068-0.088,0.133-0.128,0.205c-0.132,0.217-0.257,0.439-0.386,0.666
				c-0.042,0.072-0.083,0.144-0.121,0.213c-0.116,0.211-0.233,0.429-0.35,0.65c-0.021,0.034-0.038,0.074-0.058,0.107
				c-0.125,0.247-0.245,0.502-0.375,0.763c-0.033,0.067-0.069,0.137-0.099,0.204c-0.125,0.267-0.242,0.532-0.361,0.801
				c-0.018,0.047-0.028,0.089-0.058,0.134c-0.099,0.247-0.195,0.498-0.296,0.753c-0.024,0.061-0.047,0.124-0.069,0.187
				c-0.107,0.285-0.207,0.574-0.312,0.865c-0.016,0.063-0.034,0.124-0.061,0.188c-0.09,0.276-0.175,0.554-0.254,0.841
				c-0.009,0.039-0.02,0.077-0.033,0.117c-0.088,0.307-0.166,0.621-0.249,0.937c-0.014,0.072-0.031,0.146-0.045,0.22
				c-0.081,0.328-0.148,0.655-0.213,0.987c-0.002,0.027-0.007,0.052-0.012,0.076c-0.058,0.316-0.112,0.64-0.157,0.967
				c-0.014,0.074-0.022,0.148-0.036,0.217c-0.047,0.339-0.087,0.689-0.124,1.039c-0.004,0.058-0.009,0.125-0.013,0.193
				c-0.029,0.321-0.05,0.647-0.068,0.977c-0.004,0.055-0.013,0.112-0.018,0.169c-0.009,0.358-0.014,0.731-0.016,1.102
				c0,0.084,0,0.163,0.002,0.249c0,0.383,0.009,0.769,0.027,1.16c0.02,0.299,0.027,0.587,0.036,0.873
				c0.007,0.074,0.007,0.139,0.007,0.207c0.011,0.278,0.022,0.556,0.026,0.82c0.003,0.022,0.003,0.038,0.003,0.054
				c0.004,0.257,0.009,0.505,0.013,0.742c0,0.062,0,0.117,0,0.178c0.007,0.251,0.007,0.497,0.007,0.739
				c0,0.029-0.007,0.057-0.007,0.081c0,0.22-0.004,0.438-0.004,0.646c0,0.046-0.005,0.096-0.005,0.146
				c-0.004,0.225-0.007,0.448-0.018,0.668c0,0.027,0,0.05-0.005,0.074c-0.006,0.197-0.011,0.399-0.022,0.588
				c0,0.038-0.004,0.071-0.004,0.11c-0.007,0.203-0.027,0.405-0.043,0.603c0,0.022-0.002,0.045-0.002,0.069
				c-0.011,0.184-0.031,0.356-0.043,0.534c0,0.025-0.006,0.052-0.016,0.073c-0.011,0.187-0.027,0.368-0.049,0.548
				c0,0.014,0,0.031-0.005,0.05c-0.018,0.172-0.038,0.339-0.06,0.504c0,0.005,0,0.019,0,0.031c-0.027,0.165-0.052,0.335-0.074,0.494
				c-0.002,0.012-0.002,0.022-0.002,0.033c-0.054,0.328-0.115,0.631-0.166,0.913c0,0.009,0,0.016,0,0.024
				c-0.063,0.285-0.125,0.561-0.191,0.813l0,0l0,0c-0.857,3.315-2.135,3.599-1.881,5.105c0.419,2.436,15.28,0.227,15.28,0.227
				s4.961-0.696,7.549-0.451C307.72,317.506,314.575,316.995,314.575,316.995z"/>
		</g>
		<g>
			<g>
				<path fill="#055579" d="M297.901,275.697c0,0,0.132-0.648-0.426-1.355c-1.705,1.205-3.122,0.276-3.122,0.276
					c-0.074,0.671-0.126,0.947,0.278,1.532C294.631,276.15,296.068,277.054,297.901,275.697z"/>
			</g>
		</g>
		<path fill="#282829" d="M297.475,274.342"/>
	</g>
</g>
<g>
	<g>
		<polygon fill="#FFFFFF" points="175.006,335.406 152.343,296.146 175.006,256.884 220.339,256.884 243.004,296.146 
			220.339,335.406 		"/>
		<path fill="#FECD60" d="M221.673,337.718h-47.998l-24.001-41.571l24.001-41.569h47.998l23.99,41.569L221.673,337.718z
			 M176.343,333.098h42.659l21.328-36.951l-21.328-36.953h-42.659l-21.337,36.953L176.343,333.098z"/>
	</g>
	<g id="path1146_4_">
		<path fill="#055579" d="M193.175,304.754l-1.539-0.05c0.024-1.011,0.67-1.846,1.505-2.414c-0.491-0.458-0.839-0.961-0.882-1.477
			c-0.067-0.827,0.48-1.519,1.456-1.904c-0.215-0.375-0.361-0.779-0.388-1.195c-0.023-0.31,0.036-1.361,1.671-1.709
			c-0.047-0.135-0.079-0.28-0.101-0.422c-0.125-0.891,0.356-1.61,1.26-1.889c0.231-0.069,0.491-0.112,0.765-0.125
			c-0.213-0.924,0.215-1.449,0.462-1.664c1.018-0.893,3.133-0.391,5.026,1.186l-0.991,1.184c-1.561-1.303-2.833-1.37-3.023-1.211
			c-0.004,0.036,0.007,0.265,0.249,0.688c1.305,0.325,2.579,1.034,3.028,1.951c0.504,1.043-0.164,1.478-0.296,1.559
			c-0.944,0.521-2.68-0.832-3.653-2.126c-0.081-0.011-0.159-0.016-0.233-0.02c-0.75-0.072-1.037,0.101-1.065,0.143
			c0.027,0.231,0.119,0.453,0.238,0.669c1.44,0.137,2.942,0.765,3.342,1.962c0.204,0.608-0.079,0.978-0.204,1.108
			c-0.328,0.327-0.812,0.385-1.445,0.174c-0.662-0.218-1.731-0.845-2.507-1.727c-0.547,0.024-0.924,0.152-1.014,0.258
			c0.027,0.271,0.222,0.574,0.505,0.873c1.59-0.077,3.225,0.486,3.644,1.758c0.135,0.408,0.045,0.812-0.24,1.072
			c-0.377,0.365-0.984,0.374-1.839,0.033c-0.614-0.24-1.393-0.682-2.072-1.258c-0.014,0.004-0.029,0.006-0.047,0.009
			c-0.711,0.144-0.998,0.415-0.994,0.5c0.054,0.227,0.424,0.561,0.899,0.891c1.439-0.384,2.695-0.029,3.278,0.927
			c0.413,0.668,0.202,1.118,0.045,1.322c-0.479,0.619-1.39,0.35-1.691,0.26c-0.439-0.13-1.13-0.421-1.812-0.815
			C193.742,303.63,193.183,304.213,193.175,304.754z"/>
	</g>
	<path fill="#055579" d="M209.21,309.778c6.6,1.152,15.152-0.055,18.283-3.798c-5.549-0.237-12.236,0.561-18.294-4.193l1.095-2.102
		c-2.682-9.363-16.733-20.176-25.435-27.485c-2.037-1.708-2.808,0.731-2.7,2.958c4.837,3.007,19.537,16.203,21.102,23.344
		c-1.682,0.141-3.638,2.322-3.779,4.8c-7.971,2.473-20.1-3.147-30.645-2.592c-0.421,2.629,1.35,3.873,1.35,3.873
		c9.085,0.867,22.358,5.944,31.47,3.542c2.698,4.555,8.967,12.49,15.589,12.219c0.469-0.021,0.949-0.081,1.424-0.192
		C213.229,318.026,210.529,313.676,209.21,309.778z M204.413,305.555c-1.092,0-1.973-0.884-1.973-1.969
		c0-1.093,0.881-1.979,1.973-1.979c1.09,0,1.974,0.886,1.974,1.979C206.387,304.671,205.503,305.555,204.413,305.555z"/>
	<g id="path1146_3_">
		<path fill="#B6CE35" d="M192.248,301.479l-1.541-0.038c0.029-1.018,0.673-1.85,1.505-2.422c-0.489-0.453-0.834-0.962-0.883-1.478
			c-0.059-0.826,0.484-1.516,1.464-1.902c-0.222-0.379-0.373-0.776-0.395-1.193c-0.02-0.314,0.041-1.368,1.675-1.713
			c-0.042-0.134-0.081-0.275-0.101-0.419c-0.128-0.893,0.356-1.61,1.262-1.889c0.225-0.069,0.487-0.112,0.758-0.125
			c-0.208-0.924,0.215-1.447,0.462-1.662c1.024-0.895,3.131-0.393,5.023,1.182l-0.984,1.184c-1.563-1.31-2.837-1.368-3.028-1.207
			c-0.005,0.034,0.011,0.265,0.251,0.687c1.31,0.325,2.579,1.037,3.025,1.954c0.507,1.042-0.157,1.473-0.296,1.552
			c-0.944,0.522-2.678-0.826-3.655-2.122c-0.077-0.006-0.146-0.018-0.225-0.022c-0.756-0.063-1.043,0.101-1.072,0.145
			c0.029,0.231,0.117,0.451,0.24,0.667c1.44,0.139,2.942,0.767,3.344,1.96c0.202,0.612-0.077,0.98-0.211,1.11
			c-0.323,0.327-0.808,0.386-1.44,0.184c-0.666-0.227-1.734-0.854-2.512-1.731c-0.542,0.022-0.922,0.148-1.007,0.253
			c0.024,0.276,0.222,0.579,0.502,0.875c1.6-0.074,3.224,0.489,3.645,1.766c0.132,0.403,0.042,0.805-0.233,1.065
			c-0.386,0.363-0.996,0.372-1.843,0.031c-0.615-0.233-1.393-0.679-2.07-1.254c-0.018,0.004-0.029,0.011-0.049,0.011
			c-0.711,0.141-1,0.409-0.996,0.494c0.054,0.229,0.421,0.561,0.904,0.892c1.433-0.387,2.695-0.031,3.274,0.924
			c0.408,0.671,0.204,1.12,0.042,1.326c-0.471,0.619-1.391,0.353-1.691,0.263c-0.443-0.133-1.13-0.427-1.807-0.819
			C192.818,300.356,192.262,300.946,192.248,301.479z"/>
	</g>
	<path fill="#B6CE35" d="M208.284,306.506c6.598,1.153,15.152-0.05,18.281-3.795c-5.551-0.239-12.232,0.559-18.294-4.197l1.09-2.103
		c-2.671-9.356-16.722-20.171-25.426-27.48c-2.039-1.709-2.808,0.731-2.703,2.956c4.84,3.014,19.537,16.202,21.104,23.352
		c-1.68,0.137-3.636,2.321-3.779,4.795c-7.971,2.477-20.106-3.145-30.645-2.59c-0.419,2.628,1.348,3.875,1.348,3.875
		c9.088,0.863,22.36,5.943,31.475,3.539c2.693,4.558,8.964,12.499,15.585,12.218c0.468-0.02,0.944-0.08,1.428-0.194
		C212.31,314.757,209.607,310.403,208.284,306.506z M203.487,302.285c-1.09,0-1.974-0.884-1.974-1.972
		c0-1.094,0.884-1.976,1.974-1.976s1.973,0.882,1.973,1.976C205.46,301.401,204.577,302.285,203.487,302.285z"/>
</g>
<g>
	<path fill="#FFFFFF" d="M535.359,296.211c0,22.055-17.885,39.941-39.942,39.941c-22.052,0-39.934-17.886-39.934-39.941
		c0-22.06,17.882-39.941,39.934-39.941C517.475,256.271,535.359,274.152,535.359,296.211z"/>
	<g id="path829-4-8_3_">
		<path fill="#B6CE35" d="M496.061,337.725l-0.046-3.51c1.858-0.027,3.725-0.19,5.558-0.489l0.561,3.463
			C500.139,337.514,498.096,337.693,496.061,337.725z M491.293,337.521l0.19-1.747l-0.228,1.74c-2.03-0.209-4.018-0.554-5.95-1.039
			l0.847-3.398c1.772,0.438,3.601,0.757,5.419,0.943l-0.088,1.754L491.293,337.521z M506.776,336.152l-0.955-3.371
			c1.788-0.514,3.544-1.157,5.237-1.927l1.444,3.198C510.655,334.89,508.724,335.599,506.776,336.152z M480.764,335.062
			c-1.899-0.718-3.762-1.581-5.539-2.567l1.713-3.068c1.619,0.907,3.328,1.693,5.062,2.348L480.764,335.062z M516.717,331.849
			l-1.803-3.012c1.59-0.954,3.131-2.032,4.57-3.21l2.211,2.719C520.133,329.628,518.457,330.802,516.717,331.849z M471.208,329.945
			c-1.641-1.189-3.219-2.506-4.671-3.917l2.437-2.519c1.339,1.294,2.774,2.496,4.281,3.582L471.208,329.945z M525.204,325.13
			l-2.51-2.445c1.296-1.334,2.5-2.771,3.586-4.281l2.843,2.052C527.942,322.098,526.625,323.671,525.204,325.13z M463.314,322.53
			c-1.289-1.576-2.469-3.25-3.503-4.985l2.999-1.808c0.948,1.59,2.034,3.131,3.219,4.566L463.314,322.53z M531.686,316.439
			l-3.066-1.71c0.911-1.619,1.705-3.327,2.357-5.062l3.279,1.237C533.535,312.81,532.67,314.667,531.686,316.439z M457.599,313.338
			c-0.848-1.852-1.545-3.78-2.108-5.727l3.376-0.962c0.502,1.783,1.156,3.543,1.924,5.234L457.599,313.338z M535.675,306.371
			l-3.404-0.861c0.451-1.773,0.771-3.61,0.96-5.452l3.498,0.256l-0.015,0.171C536.512,302.422,536.166,304.422,535.675,306.371z
			 M454.448,302.972c-0.328-1.996-0.512-4.042-0.539-6.074l3.507-0.052c0.029,1.857,0.194,3.725,0.494,5.555L454.448,302.972z
			 M533.421,295.657c-0.024-1.854-0.179-3.723-0.478-5.557l3.461-0.565c0.324,2.007,0.502,4.05,0.526,6.081L533.421,295.657z
			 M457.599,292.495l-3.497-0.354l0.014-0.134c0.199-1.976,0.55-3.95,1.025-5.865l3.402,0.845c-0.441,1.754-0.751,3.562-0.938,5.369
			L457.599,292.495z M531.999,285.848c-0.512-1.783-1.15-3.548-1.915-5.237l3.196-1.444c0.834,1.848,1.54,3.776,2.088,5.726
			L531.999,285.848z M459.828,282.833l-3.279-1.238c0.717-1.9,1.576-3.759,2.559-5.538l3.063,1.705
			C461.274,279.386,460.489,281.091,459.828,282.833z M528.069,276.751c-0.953-1.592-2.033-3.133-3.206-4.573l2.726-2.22
			c1.272,1.579,2.452,3.254,3.495,4.992L528.069,276.751z M464.508,274.082l-2.846-2.043c1.182-1.646,2.494-3.223,3.9-4.681
			l2.523,2.438C466.796,271.133,465.592,272.573,464.508,274.082z M521.923,268.969c-1.333-1.303-2.766-2.509-4.272-3.595
			l2.047-2.842c1.646,1.182,3.219,2.505,4.673,3.92L521.923,268.969z M471.288,266.843l-2.227-2.709
			c1.571-1.29,3.25-2.471,4.979-3.519l1.814,3.005C474.262,264.578,472.728,265.661,471.288,266.843z M513.977,263.028
			c-1.624-0.911-3.321-1.702-5.058-2.362l1.238-3.281c1.898,0.721,3.763,1.589,5.535,2.582L513.977,263.028z M479.704,261.593
			l-1.452-3.194c1.841-0.84,3.768-1.547,5.712-2.107l0.972,3.37C483.154,260.175,481.392,260.828,479.704,261.593z M504.759,259.367
			c-1.786-0.457-3.641-0.782-5.496-0.97l-0.167-0.017l0.336-3.494l0.178,0.019c2.029,0.206,4.053,0.562,6.009,1.055L504.759,259.367
			z M489.183,258.708l-0.567-3.464c1.994-0.327,4.035-0.518,6.062-0.554l0.061,3.514
			C492.879,258.232,491.007,258.401,489.183,258.708z"/>
	</g>
	<g>
		
			<path id="path886-8_1_" inkscape:export-filename="/home/gil/jobs/abeilles/illustration/alpha/alpha01.png" inkscape:export-xdpi="222.39528" inkscape:export-ydpi="222.39528" inkscape:connector-curvature="0" sodipodi:nodetypes="ccccc" fill="none" stroke="#FECD60" stroke-width="3" stroke-linecap="round" stroke-linejoin="round" d="
			M496.301,314.761v-14.084l18.957-13.266v-9.794h-37.515"/>
		
			<path id="rect888-6_1_" inkscape:export-filename="/home/gil/jobs/abeilles/illustration/alpha/alpha01.png" inkscape:export-xdpi="222.39528" inkscape:export-ydpi="222.39528" fill="#FECD60" d="
			M478.139,272.188h31.171c1.413,0,2.557,1.144,2.557,2.557v5.934c0,1.411-1.144,2.555-2.557,2.555h-31.171
			c-1.414,0-2.556-1.144-2.556-2.555v-5.934C475.583,273.332,476.725,272.188,478.139,272.188z"/>
		
			<path id="rect888-6-8_1_" inkscape:export-filename="/home/gil/jobs/abeilles/illustration/alpha/alpha01.png" inkscape:export-xdpi="222.39528" inkscape:export-ydpi="222.39528" fill="#FECD60" d="
			M499.244,305.048v19.516c0,0.503-0.403,0.913-0.916,0.913h-3.816c-0.507,0-0.917-0.41-0.917-0.913v-19.516
			c0-0.509,0.41-0.912,0.917-0.912h3.816C498.841,304.136,499.244,304.539,499.244,305.048z"/>
	</g>
</g>
<g>
	<g>
		<polygon fill="#4FA1BD" points="573.697,339.455 548.949,296.606 573.697,253.751 623.18,253.751 647.918,296.606 623.18,339.455 
					"/>
		<path fill="#FFFFFF" d="M623.963,340.822h-51.055l-25.535-44.216l25.535-44.22h51.055l25.533,44.22L623.963,340.822z
			 M574.48,338.097h47.912l23.957-41.491l-23.957-41.495H574.48l-23.955,41.495L574.48,338.097z"/>
	</g>
	<path fill="#FFFFFF" d="M624.484,283.23h-2.416c0.164-1.639,0.295-2.924,0.367-3.685h0.76c0.051,0,0.096-0.036,0.096-0.094v-0.87
		c0-0.054-0.045-0.097-0.096-0.097h-0.312v-0.303h0.312c0.051,0,0.096-0.038,0.096-0.097v-1.48c0-0.054-0.045-0.092-0.096-0.092
		h-4.611l-2.193-5.004c-0.023-0.047-0.648-1.097-2.105-1.097h-31.338c-1.465,0-2.094,1.05-2.119,1.101l-2.072,4.851l-0.082,0.148
		h-4.623c-0.051,0-0.092,0.038-0.092,0.092v1.48c0,0.059,0.041,0.097,0.092,0.097h0.318v0.303h-0.318
		c-0.051,0-0.092,0.042-0.092,0.097v0.87c0,0.059,0.041,0.094,0.092,0.094h1.033c0.072,0.761,0.201,2.046,0.365,3.685h-2.643
		c-0.051,0-0.094,0.041-0.094,0.092v2.227c0,0.056,0.043,0.094,0.094,0.094h2.883c0.893,9.033,2.379,23.815,2.449,24.033
		c0.01,0.029,0.02,0.102,0.033,0.175c0.09,0.729,0.371,2.932,3.441,3.373h1.652l0.295,1.14c0.012,0.042,0.047,0.071,0.096,0.071
		h0.262l0.023,0.835c-1.379,0.35-2.412,1.587-2.412,3.086c0,1.763,1.426,3.191,3.188,3.191c1.77,0,3.189-1.429,3.189-3.191
		c0-1-0.463-1.882-1.188-2.469l0.598-1.452h0.504c0.045,0,0.086-0.038,0.086-0.097v-1.114h23.205l0.303,1.14
		c0.016,0.042,0.055,0.071,0.1,0.071h0.26l0.021,0.835c-1.381,0.35-2.412,1.587-2.412,3.086c0,1.763,1.428,3.191,3.191,3.191
		c1.76,0,3.191-1.429,3.191-3.191c0-1-0.467-1.882-1.186-2.469l0.59-1.452h0.508c0.049,0,0.088-0.038,0.088-0.097v-1.114h0.139
		c0.004,0,0.014,0,0.018,0c3.057-0.441,3.34-2.644,3.428-3.373c0.01-0.073,0.025-0.146,0.035-0.175
		c0.07-0.218,1.549-15,2.443-24.033h2.656c0.055,0,0.1-0.039,0.1-0.094v-2.227C624.584,283.271,624.539,283.23,624.484,283.23z"/>
</g>
<g>
	<g>
		<rect x="661.331" y="256.093" fill="#FFFFFF" width="80.225" height="80.227"/>
		<path fill="#FECD60" d="M742.953,337.718h-83.016v-83.028h83.016V337.718z M662.729,334.924h77.434V257.49h-77.434V334.924z"/>
	</g>
	<g>
		<path fill="#4FA1BD" d="M730.104,285.24h1.558v-3.291h-17.223l-1.713-1.933c-0.433-0.491-1.048-0.767-1.697-0.767h-9.949
			c-0.422,0-0.834,0.133-1.178,0.377l-2.377,1.72c-0.443,0.316-0.718,0.796-0.794,1.325h-5.728v1.772h-5.509l-2.97,1.788v0.487
			h-14.461c-0.276,0-0.498,0.222-0.498,0.493v0.372c0,0.28,0.222,0.502,0.498,0.502h14.461v0.482l2.97,1.794l0.011-0.011h5.498
			v1.771h5.761c0.064,0.307,0.171,0.605,0.378,0.854l5.486,6.796c0.38,0.471,0.956,0.748,1.56,0.748h15.698
			c0.9,0,1.728,0.55,2.066,1.389h-2.681c-0.22,0-0.322,0.273-0.154,0.417c0.837,0.688,2.356,2.232,2.743,4.465
			c0.062,0.396,0.416,0.673,0.812,0.673h1.538l3.556,8.752c0.222,0.545,0.749,0.904,1.339,0.904h4.788
			c0.886,0,1.565-0.811,1.42-1.689L730.104,285.24z"/>
		<path fill="#055579" d="M700.325,291.387c0,0.577-0.467,1.041-1.036,1.041c-0.571,0-1.038-0.464-1.038-1.041
			c0-0.572,0.467-1.036,1.038-1.036C699.858,290.352,700.325,290.815,700.325,291.387z"/>
		<polygon fill="#055579" points="730.556,287.864 723.257,287.864 723.484,288.797 730.714,288.797 		"/>
		<polygon fill="#055579" points="730.84,289.526 723.663,289.526 723.89,290.457 731.006,290.457 		"/>
		<polygon fill="#055579" points="731.127,291.188 724.071,291.188 724.302,292.123 731.289,292.123 		"/>
		<polygon fill="#055579" points="731.414,292.85 724.479,292.85 724.706,293.785 731.575,293.785 		"/>
		<path fill="#055579" d="M730.76,303.754c0,1.291-1.047,2.344-2.347,2.344c-1.292,0-2.344-1.053-2.344-2.344
			c0-1.292,1.052-2.346,2.344-2.346C729.713,301.408,730.76,302.462,730.76,303.754z"/>
		<polygon fill="#055579" points="696.69,286.511 730.329,286.511 730.104,285.24 696.69,285.24 		"/>
	</g>
</g>
<g>
	<g id="path829-4-8_2_">
		<path fill="#FFFFFF" d="M97.668,256.383c22.024,0,39.88,17.856,39.88,39.878c0,22.026-17.856,39.877-39.88,39.877
			c-22.023,0-39.865-17.852-39.865-39.877C57.803,274.239,75.645,256.383,97.668,256.383z"/>
		<path fill="#8C9CA6" d="M97.668,337.823c-22.917,0-41.556-18.644-41.556-41.562c0-22.917,18.639-41.57,41.556-41.57
			c22.921,0,41.565,18.653,41.565,41.57C139.233,319.18,120.589,337.823,97.668,337.823z M97.668,258.069
			c-21.057,0-38.183,17.135-38.183,38.192c0,21.059,17.126,38.189,38.183,38.189c21.062,0,38.191-17.13,38.191-38.189
			C135.859,275.204,118.729,258.069,97.668,258.069z"/>
	</g>
	<g>
		<path fill="#FECD60" d="M89.679,272.246c1.285,0.067,3.01-0.949,3.146-2.054c0.989,0.231,1.924,0.63,2.14-0.047
			c0.415-1.292,0.172-6.121-1.978-7.657c-2.084-1.491-4.518-0.805-6.009,1.235C84.086,267.67,87.793,272.143,89.679,272.246z"/>
		<path fill="#FECD60" d="M108.03,306.97c-0.301-0.324-0.583-0.356-0.806-0.303l-10.819-15.098c0.383-0.495,0.884-1.456,0.267-2.615
			c0,0-1.305-1.521-1.2-3.881c0,0,0-4.352-1.126-7.408c0,0-0.875-2.254-5.333-4.562c0,0-3.907-1.454-6.529-0.953l-1.926-2.691
			c-0.182-0.243-0.524-0.305-0.776-0.126c-0.243,0.178-0.3,0.519-0.117,0.77l1.731,2.422c-0.332,0.188-0.617,0.43-0.832,0.755
			c0,0-2.216,3.205-6.345,7.121c0,0-1.108,0.861-0.538,2.243c0.392,0.958,1.35,0.958,3.146,1.014c0,0,2.023-0.056,4.05-0.337
			c0,0,0.368,2.019-1.025,4.86c-1.285,2.626-1.72,8.213-1.72,8.213s1.341,0.644,1.987,0.323c0,0,2.671,9.326,1.561,12.881
			c0,0-2.583,4.422,0.153,11.348c0,0,1.35,3.596,1.561,5.881l8.105,0.052c0,0-1.121-2.226-5.542-2.56c0,0-2.05-7.315,0.552-13.954
			c0,0,0.958-3.216,0.958-10.264c0,0,3.216,5.541,2.599,9.577c0,0-1.16,3.362,0.341,7.116c0,0,1.04,3.25,1.157,6.522h7.672
			c0,0-1.065-2.008-5.064-2.279c0,0-1.509-6.087,0.062-12.979c0,0,0.577-4.508-1.448-11.665l1.666-0.104c0,0-0.919-4.835-1.61-6.656
			c0,0,1.207,2.364,2.57,2.446l10.911,15.194c-0.274,0.261-0.152,0.629-0.085,0.759c3.761,6.874,4.633,15.836,4.633,15.836
			c8.428,2.42,10.947-1.236,10.947-1.236C118.709,317.591,108.03,306.97,108.03,306.97z"/>
	</g>
</g>
</svg>
