<?xml version="1.0" standalone="no"?>
<!DOCTYPE svg PUBLIC "-//W3C//DTD SVG 1.1//EN" "http://www.w3.org/Graphics/SVG/1.1/DTD/svg11.dtd" >
<svg xmlns="http://www.w3.org/2000/svg" xmlns:xlink="http://www.w3.org/1999/xlink" version="1.1">
<metadata></metadata>
<defs>
<font id="creato_displayregular" horiz-adv-x="528" >
<font-face units-per-em="1000" ascent="804" descent="-196" />
<missing-glyph horiz-adv-x="250" />
<glyph horiz-adv-x="0" />
<glyph horiz-adv-x="333" />
<glyph horiz-adv-x="0" />
<glyph horiz-adv-x="0" />
<glyph unicode="&#xd;" horiz-adv-x="250" />
<glyph unicode=" "  horiz-adv-x="250" />
<glyph unicode="&#x09;" horiz-adv-x="250" />
<glyph unicode="&#xa0;" horiz-adv-x="250" />
<glyph unicode="!" horiz-adv-x="189" d="M94 -6q-25 0 -39 13.5t-14 34.5q0 20 14 34t39 14t39 -14t14 -34q0 -21 -14 -34.5t-39 -13.5zM117 196h-46l-20 290v226h86v-226z" />
<glyph unicode="&#x22;" horiz-adv-x="363" d="M124 466h-60l-14 246h89zM299 466h-60l-15 246h89z" />
<glyph unicode="#" horiz-adv-x="649" d="M40 270h122l30 172h-121l10 64h123l36 206h72l-36 -206h151l36 206h72l-36 -206h121l-10 -64h-123l-30 -172h122l-11 -64h-122l-36 -206h-72l36 206h-151l-36 -206h-72l36 206h-122zM264 442l-30 -172h151l30 172h-151z" />
<glyph unicode="$" horiz-adv-x="618" d="M330 -116h-42v107q-255 9 -255 232h81q9 -83 48 -123t126 -44v271l-44 7q-106 16 -149.5 57t-43.5 118q0 94 60 150.5t177 61.5v107h42v-107q118 -4 177.5 -62t59.5 -160h-79q-8 75 -45 113t-113 43v-258l47 -7q105 -15 156.5 -58.5t51.5 -122.5q0 -100 -64 -157 t-191 -61v-107zM352 318l-22 3v-265q169 7 169 149q0 45 -32 73t-115 40zM137 514q0 -47 28 -71.5t104 -36.5l19 -3v252q-151 -9 -151 -141z" />
<glyph unicode="%" horiz-adv-x="881" d="M197 286q-164 0 -164 216t164 216t164 -216t-164 -216zM197 336q105 0 105 166t-105 166t-105 -166t105 -166zM278 0h-57l382 712h57zM684 -6q-164 0 -164 216t164 216t164 -216t-164 -216zM684 44q105 0 105 166t-105 166t-105 -166t105 -166z" />
<glyph unicode="&#x26;" horiz-adv-x="680" d="M576 0l-74 72q-94 -82 -231 -82q-112 0 -175 52.5t-63 133.5q0 72 36 119.5t123 80.5q-78 81 -78 172q0 76 51.5 125t141.5 49t142 -49t52 -125q0 -63 -46 -106t-150 -79l194 -191q46 66 65 173h76q-25 -134 -91 -222l125 -123h-98zM276 54q106 0 178 65l-222 218 q-63 -26 -89.5 -61.5t-26.5 -92.5q0 -58 46 -93.5t114 -35.5zM193 550q0 -40 15 -72.5t57 -75.5q82 30 119.5 66t37.5 82q0 53 -31.5 82.5t-83.5 29.5t-83 -29.5t-31 -82.5z" />
<glyph unicode="'" horiz-adv-x="189" d="M124 466h-60l-14 246h89z" />
<glyph unicode="(" horiz-adv-x="248" d="M43 293q0 269 135 489h63q-122 -223 -122 -489t122 -489h-63q-135 220 -135 489z" />
<glyph unicode=")" horiz-adv-x="248" d="M205 293q0 -269 -135 -489h-64q123 223 123 489t-123 489h64q135 -220 135 -489z" />
<glyph unicode="*" horiz-adv-x="417" d="M294 345l-86 135l-85 -135l-54 38l102 125l-155 40l20 63l149 -59l-10 160h67l-10 -160l148 59l20 -63l-155 -40l103 -125z" />
<glyph unicode="+" horiz-adv-x="520" d="M225 144v180h-177v64h177v180h70v-180h177v-64h-177v-180h-70z" />
<glyph unicode="," horiz-adv-x="189" d="M74 -139l-43 18q28 46 28 118v109h71v-109q0 -94 -56 -136z" />
<glyph unicode="-" horiz-adv-x="352" d="M304 255h-256v64h256v-64z" />
<glyph unicode="." horiz-adv-x="189" d="M94 -6q-25 0 -39 13.5t-14 34.5q0 20 14 34t39 14t39 -14t14 -34q0 -21 -14 -34.5t-39 -13.5z" />
<glyph unicode="/" horiz-adv-x="339" d="M77 0h-77l262 712h77z" />
<glyph unicode="0" horiz-adv-x="621" d="M310 -10q-277 0 -277 366t277 366q278 0 278 -366t-278 -366zM310 57q195 0 195 299t-195 299q-194 0 -194 -299t194 -299z" />
<glyph unicode="1" horiz-adv-x="345" d="M286 0h-83v581q-20 -29 -64.5 -45t-88.5 -16h-17v63q147 6 186 129h67v-712z" />
<glyph unicode="2" horiz-adv-x="561" d="M528 0h-495v43q0 115 43 179t149 103l109 40q111 39 111 142q0 69 -42.5 108.5t-113.5 39.5q-78 0 -118 -43.5t-48 -132.5h-74q0 119 61 181t178 62q114 0 177 -58t63 -159q0 -140 -159 -199l-113 -41q-73 -26 -106 -73t-34 -125h412v-67z" />
<glyph unicode="3" horiz-adv-x="585" d="M292 -10q-259 0 -259 243h74q8 -94 53.5 -135t132.5 -41q83 0 129.5 39.5t46.5 103.5q0 131 -149 131h-96v64h86q149 0 149 121q0 61 -45 100t-122 39q-161 0 -175 -156h-74q0 105 65 164t184 59q112 0 181 -54.5t69 -145.5q0 -65 -32 -105t-87 -52q63 -16 96 -57.5 t33 -118.5q0 -91 -71.5 -145t-188.5 -54z" />
<glyph unicode="4" horiz-adv-x="601" d="M467 0h-81v194h-353v79l340 439h94v-450h101v-68h-101v-194zM386 262v361l-279 -361h279z" />
<glyph unicode="5" horiz-adv-x="570" d="M285 -10q-116 0 -179 57.5t-63 132.5h78q6 -49 47 -87.5t117 -38.5t123 45t47 126t-47 126.5t-123 45.5q-71 0 -110 -34t-51 -83h-77l60 432h390v-67h-322l-35 -251q48 64 154 64q111 0 177 -60t66 -171q0 -112 -67.5 -174.5t-184.5 -62.5z" />
<glyph unicode="6" horiz-adv-x="584" d="M299 -10q-266 0 -266 311q0 206 68 313.5t198 107.5q203 0 230 -183h-75q-9 55 -46.5 87t-105.5 32q-179 0 -186 -319q46 119 192 119q111 0 177 -60t66 -171t-68 -174t-184 -63zM296 54q78 0 125.5 45.5t47.5 126.5t-47.5 126t-125.5 45q-77 0 -125 -45t-48 -126 t48 -126.5t125 -45.5z" />
<glyph unicode="7" horiz-adv-x="483" d="M237 0h-85q0 189 61 356t179 289h-373v67h445v-67q-119 -125 -173 -282.5t-54 -362.5z" />
<glyph unicode="8" horiz-adv-x="587" d="M293 -10q-121 0 -190.5 51.5t-69.5 146.5q0 146 155 177q-64 15 -99.5 56.5t-35.5 107.5q0 90 65.5 141.5t174.5 51.5t175 -51.5t66 -141.5q0 -66 -35.5 -107.5t-99.5 -56.5q155 -31 155 -177q0 -95 -70 -146.5t-191 -51.5zM293 54q85 0 131.5 36t46.5 102t-46.5 102.5 t-131.5 36.5q-84 0 -130 -36.5t-46 -102.5t46 -102t130 -36zM293 395q75 0 118.5 35.5t43.5 96.5t-43.5 96t-118.5 35q-74 0 -117.5 -35t-43.5 -96t43.5 -96.5t117.5 -35.5z" />
<glyph unicode="9" horiz-adv-x="584" d="M286 722q265 0 265 -311q0 -206 -67.5 -313.5t-197.5 -107.5q-205 0 -230 182h74q9 -54 46.5 -86t105.5 -32q178 0 187 319q-48 -119 -193 -119q-111 0 -177 60t-66 171t68.5 174t184.5 63zM288 658q-77 0 -124.5 -45.5t-47.5 -126.5t47.5 -126t124.5 -45q78 0 125.5 45 t47.5 126t-47.5 126.5t-125.5 45.5z" />
<glyph unicode=":" horiz-adv-x="189" d="M94 -6q-25 0 -39 13.5t-14 34.5q0 20 14 34t39 14t39 -14t14 -34q0 -21 -14 -34.5t-39 -13.5zM94 400q-25 0 -39 13.5t-14 34.5t14 34.5t39 13.5t39 -13.5t14 -34.5t-14 -34.5t-39 -13.5z" />
<glyph unicode=";" horiz-adv-x="189" d="M74 -139l-43 18q28 46 28 118v109h71v-109q0 -94 -56 -136zM94 400q-25 0 -39 13.5t-14 34.5t14 34.5t39 13.5t39 -13.5t14 -34.5t-14 -34.5t-39 -13.5z" />
<glyph unicode="&#x3c;" horiz-adv-x="520" d="M472 141l-424 183v64l424 183v-72l-345 -143l345 -143v-72z" />
<glyph unicode="=" horiz-adv-x="520" d="M472 231h-424v61h424v-61zM472 420h-424v61h424v-61z" />
<glyph unicode="&#x3e;" horiz-adv-x="520" d="M472 324l-424 -183v72l345 143l-345 143v72l424 -183v-64z" />
<glyph unicode="?" horiz-adv-x="525" d="M252 -6q-24 0 -38.5 13.5t-14.5 34.5q0 20 14.5 34t38.5 14q25 0 39.5 -14t14.5 -34q0 -21 -14.5 -34.5t-39.5 -13.5zM287 196h-69v32q0 50 19.5 87t47 59t55 42t47 47t19.5 62q0 58 -40.5 94t-103.5 36q-135 0 -151 -156h-78q0 105 60 164t169 59q106 0 168 -55t62 -142 q0 -43 -21 -76.5t-51 -56t-60.5 -43.5t-51.5 -51.5t-21 -69.5v-32z" />
<glyph unicode="@" horiz-adv-x="909" d="M430 80q-85 0 -134 58t-49 160t49 160t134 58q103 0 141 -79v72h70v-312q0 -62 62 -62q50 0 81.5 57.5t31.5 155.5q0 133 -98 227t-264 94q-169 0 -265 -102t-96 -269t96 -269t265 -102q111 0 206 41v-53q-95 -41 -206 -41q-193 0 -307 117t-114 307t114 307t307 117 q190 0 306 -109t116 -265q0 -129 -52 -198.5t-133 -69.5q-97 0 -117 84q-38 -84 -144 -84zM445 135q58 0 92 41t34 122t-34 122t-92 41t-92 -41t-34 -122t34 -122t92 -41z" />
<glyph unicode="A" horiz-adv-x="688" d="M675 0h-89l-71 180h-342l-71 -180h-89l279 712h104zM492 247l-148 383l-149 -383h297z" />
<glyph unicode="B" horiz-adv-x="659" d="M626 193q0 -85 -58 -139t-162 -54h-347v712h327q104 0 162 -51t58 -135q0 -60 -30 -102t-88 -59q67 -15 102.5 -61t35.5 -111zM540 198q0 59 -37.5 96t-105.5 37h-252v-265h252q68 0 105.5 36.5t37.5 95.5zM520 520q0 58 -37 92t-106 34h-232v-251h232q69 0 106 33.5 t37 91.5z" />
<glyph unicode="C" horiz-adv-x="716" d="M371 -10q-163 0 -250.5 99.5t-87.5 266.5t87.5 266.5t250.5 99.5q141 0 226.5 -74t85.5 -184h-79q-10 84 -70 135.5t-163 51.5q-124 0 -188 -76.5t-64 -218.5t64 -218.5t188 -76.5q103 0 163 51.5t70 141.5h79q0 -113 -84.5 -188.5t-227.5 -75.5z" />
<glyph unicode="D" horiz-adv-x="699" d="M666 356q0 -170 -85 -263t-253 -93h-269v712h269q168 0 253 -93.5t85 -262.5zM580 356q0 287 -249 287h-186v-574h186q249 0 249 287z" />
<glyph unicode="E" horiz-adv-x="581" d="M548 0h-489v712h489v-71h-403v-244h371v-68h-371v-258h403v-71z" />
<glyph unicode="F" horiz-adv-x="567" d="M145 0h-86v712h489v-71h-403v-244h371v-68h-371v-329z" />
<glyph unicode="G" horiz-adv-x="733" d="M364 -10q-161 0 -246 99t-85 267q0 167 87.5 266.5t250.5 99.5q143 0 225.5 -72.5t82.5 -174.5h-76q-13 79 -72.5 127.5t-159.5 48.5q-124 0 -188 -76.5t-64 -218.5t64 -218.5t188 -76.5q223 0 230 249h-211v61h294v-371h-66l-6 147q-48 -157 -248 -157z" />
<glyph unicode="H" horiz-adv-x="697" d="M638 0h-86v326h-407v-326h-86v712h86v-312h407v312h86v-712z" />
<glyph unicode="I" horiz-adv-x="204" d="M145 0h-86v712h86v-712z" />
<glyph unicode="J" horiz-adv-x="545" d="M263 -10q-123 0 -178.5 60.5t-55.5 181.5v20h83v-20q0 -92 35.5 -131.5t113.5 -39.5q77 0 113 39.5t36 131.5v480h86v-480q0 -121 -55 -181.5t-178 -60.5z" />
<glyph unicode="K" horiz-adv-x="625" d="M612 0h-102l-260 354l-114 -113v-241h-86v712h86v-367l364 367h102l-294 -295z" />
<glyph unicode="L" horiz-adv-x="525" d="M506 0h-447v712h86v-641h361v-71z" />
<glyph unicode="M" horiz-adv-x="875" d="M816 0h-83v631l-258 -631h-75l-258 631v-631h-83v712h134l245 -587l244 587h134v-712z" />
<glyph unicode="N" horiz-adv-x="697" d="M638 0h-96l-400 593v-593h-83v712h96l400 -593v593h83v-712z" />
<glyph unicode="O" horiz-adv-x="743" d="M371 -10q-163 0 -250.5 99.5t-87.5 266.5t87.5 266.5t250.5 99.5q164 0 251.5 -99.5t87.5 -266.5t-87.5 -266.5t-251.5 -99.5zM371 61q124 0 188.5 76.5t64.5 218.5t-64.5 218.5t-188.5 76.5t-188 -76.5t-64 -218.5t64 -218.5t188 -76.5z" />
<glyph unicode="P" horiz-adv-x="629" d="M596 494q0 -105 -64 -161.5t-176 -56.5h-211v-276h-86v712h297q112 0 176 -56t64 -162zM510 494q0 152 -165 152h-200v-304h200q81 0 123 38.5t42 113.5z" />
<glyph unicode="Q" horiz-adv-x="743" d="M710 -80h-80l-81 111q-77 -41 -178 -41q-163 0 -250.5 99.5t-87.5 266.5t87.5 266.5t250.5 99.5q164 0 251.5 -99.5t87.5 -266.5q0 -190 -109 -288zM371 61q80 0 133 31l-158 218h80l129 -178q69 78 69 224q0 142 -64.5 218.5t-188.5 76.5t-188 -76.5t-64 -218.5 t64 -218.5t188 -76.5z" />
<glyph unicode="R" horiz-adv-x="639" d="M596 514q0 -141 -126 -177q116 -29 116 -150v-115q0 -44 10 -72h-80q-16 34 -16 72v113q0 121 -142 121h-213v-306h-86v712h317q105 0 162.5 -52.5t57.5 -145.5zM510 509q0 64 -35 100.5t-108 36.5h-222v-274h222q73 0 108 36.5t35 100.5z" />
<glyph unicode="S" horiz-adv-x="618" d="M309 -10q-276 0 -276 233h81q10 -88 53.5 -127.5t143.5 -39.5q188 0 188 149q0 45 -32 73t-115 40l-108 16q-106 16 -149.5 57t-43.5 118q0 98 65.5 155.5t192.5 57.5q129 0 193.5 -58t64.5 -165h-79q-9 81 -51 119t-130 38q-85 0 -127.5 -37.5t-42.5 -104.5 q0 -47 28 -71.5t104 -36.5l108 -16q105 -15 156.5 -58.5t51.5 -122.5q0 -104 -69 -161.5t-207 -57.5z" />
<glyph unicode="T" horiz-adv-x="577" d="M332 0h-86v641h-227v71h539v-71h-226v-641z" />
<glyph unicode="U" horiz-adv-x="677" d="M339 -10q-150 0 -220 69.5t-70 209.5v443h86v-436q0 -117 48 -166t156 -49q107 0 155 49t48 166v436h86v-443q0 -140 -70 -209.5t-219 -69.5z" />
<glyph unicode="V" horiz-adv-x="688" d="M396 0h-104l-279 712h93l238 -623l238 623h93z" />
<glyph unicode="W" horiz-adv-x="986" d="M761 0h-102l-166 592l-166 -592h-103l-211 712h93l172 -606l170 606h90l170 -606l172 606h93z" />
<glyph unicode="X" horiz-adv-x="668" d="M655 0h-103l-218 296l-218 -296h-103l266 363l-256 349h103l208 -282l208 282h103l-256 -349z" />
<glyph unicode="Y" horiz-adv-x="668" d="M291 0v300l-278 412h100l221 -332l221 332h100l-278 -412v-300h-86z" />
<glyph unicode="Z" horiz-adv-x="557" d="M520 0h-484v61l369 580h-359v71h464v-61l-369 -580h379v-71z" />
<glyph unicode="[" horiz-adv-x="311" d="M295 -196h-236v978h236v-60h-160v-858h160v-60z" />
<glyph unicode="\" horiz-adv-x="339" d="M339 0h-77l-262 712h77z" />
<glyph unicode="]" horiz-adv-x="311" d="M252 -196h-236v60h160v858h-160v60h236v-978z" />
<glyph unicode="^" horiz-adv-x="390" d="M373 417h-74l-104 219l-104 -219h-75l147 295h64z" />
<glyph unicode="_" horiz-adv-x="464" d="M464 -117h-464v58h464v-58z" />
<glyph unicode="`" horiz-adv-x="500" d="M330 593h-63l-110 143h89z" />
<glyph unicode="a" d="M216 -10q-87 0 -135 41.5t-48 114.5q0 61 42 99.5t132 46.5l95 8q52 4 71 17t19 42q0 107 -123 107q-119 0 -128 -107h-80q0 79 51 123t156 44t156 -44t51 -123v-227q0 -105 16 -132h-73q-22 30 -22 98q-42 -108 -180 -108zM238 48q73 0 113.5 50.5t40.5 126.5v51 q-18 -24 -90 -30l-71 -6q-115 -8 -115 -89q0 -47 30 -75t92 -28z" />
<glyph unicode="b" horiz-adv-x="571" d="M314 -10q-137 0 -182 113v-103h-79v712h83v-294q44 108 178 108q105 0 164.5 -71t59.5 -197t-59.5 -197t-164.5 -71zM295 54q74 0 117 51t43 153t-43 153t-117 51t-116.5 -51t-42.5 -153t42.5 -153t116.5 -51z" />
<glyph unicode="c" horiz-adv-x="522" d="M274 -10q-114 0 -177.5 71.5t-63.5 196.5t63.5 196.5t177.5 71.5q110 0 167.5 -58.5t57.5 -135.5h-75q-8 57 -45 93.5t-105 36.5q-75 0 -116.5 -52t-41.5 -152t41.5 -152t116.5 -52q64 0 102.5 34.5t47.5 99.5h75q0 -82 -58.5 -140t-166.5 -58z" />
<glyph unicode="d" horiz-adv-x="571" d="M257 -10q-105 0 -164.5 71t-59.5 197t59.5 197t164.5 71q135 0 178 -108v294h83v-712h-79v103q-45 -113 -182 -113zM275 54q74 0 117 51t43 153t-43 153t-117 51t-116.5 -51t-42.5 -153t42.5 -153t116.5 -51z" />
<glyph unicode="e" horiz-adv-x="549" d="M280 -10q-118 0 -182.5 71t-64.5 197q0 123 62.5 195.5t178.5 72.5t179 -71.5t63 -184.5q0 -17 -2 -25h-398q1 -101 44.5 -149t119.5 -48q60 0 98.5 29t52.5 80h74q-39 -167 -225 -167zM274 468q-68 0 -109 -42t-49 -125h317q-8 83 -49.5 125t-109.5 42z" />
<glyph unicode="f" horiz-adv-x="325" d="M181 0h-83v456h-88v60h88v64q0 70 32 103.5t104 33.5q21 0 71 -5v-58l-54 2q-39 0 -54.5 -17.5t-15.5 -56.5v-66h124v-60h-124v-456z" />
<glyph unicode="g" horiz-adv-x="571" d="M257 20q-103 0 -163.5 69.5t-60.5 183.5t60.5 183.5t163.5 69.5q137 0 182 -113v103h79v-482q0 -118 -61 -179t-177 -61q-106 0 -162.5 48.5t-56.5 130.5h76q5 -59 43.5 -90.5t103.5 -31.5q151 0 151 165v112q-43 -108 -178 -108zM275 80q73 0 116.5 50.5t43.5 142.5 t-43.5 142.5t-116.5 50.5q-72 0 -115.5 -50.5t-43.5 -142.5t43.5 -142.5t115.5 -50.5z" />
<glyph unicode="h" d="M475 0h-83v328q0 66 -26.5 98.5t-87.5 32.5q-65 0 -103.5 -46.5t-38.5 -124.5v-288h-83v712h83v-286q45 100 165 100q88 0 131 -45.5t43 -139.5v-341z" />
<glyph unicode="i" horiz-adv-x="189" d="M136 0h-83v516h83v-516zM94 619q-24 0 -37.5 13t-13.5 33t13.5 33t37.5 13t38 -13t14 -33t-14 -33t-38 -13z" />
<glyph unicode="j" horiz-adv-x="189" d="M-43 -196v60h38q58 0 58 72v580h83v-580q0 -63 -31.5 -97.5t-89.5 -34.5h-58zM94 619q-24 0 -37.5 13t-13.5 33t13.5 33t37.5 13t38 -13t14 -33t-14 -33t-38 -13z" />
<glyph unicode="k" horiz-adv-x="526" d="M513 0h-96l-183 251l-98 -94v-157h-83v712h83v-462l271 266h96l-213 -208z" />
<glyph unicode="l" horiz-adv-x="189" d="M136 0h-83v712h83v-712z" />
<glyph unicode="m" horiz-adv-x="778" d="M725 0h-80v330q0 66 -22 97.5t-73 31.5q-54 0 -88.5 -46t-34.5 -123v-290h-79v330q0 66 -22.5 97.5t-71.5 31.5q-53 0 -87 -46t-34 -123v-290h-80v516h79v-95q18 49 56 77t90 28q116 0 142 -111q40 111 153 111q152 0 152 -185v-341z" />
<glyph unicode="n" d="M475 0h-83v328q0 66 -26.5 98.5t-87.5 32.5q-65 0 -103.5 -46.5t-38.5 -124.5v-288h-83v516h79v-95q48 105 169 105q88 0 131 -45.5t43 -139.5v-341z" />
<glyph unicode="o" horiz-adv-x="561" d="M280 -10q-118 0 -182.5 71t-64.5 197q0 125 64.5 196.5t182.5 71.5q119 0 183.5 -71.5t64.5 -196.5q0 -126 -64.5 -197t-183.5 -71zM280 54q80 0 122.5 52t42.5 152t-42.5 152t-122.5 52q-79 0 -121.5 -52t-42.5 -152t42.5 -152t121.5 -52z" />
<glyph unicode="p" horiz-adv-x="571" d="M314 -10q-134 0 -178 108v-294h-83v712h79v-103q45 113 182 113q105 0 164.5 -71t59.5 -197t-59.5 -197t-164.5 -71zM295 54q74 0 117 51t43 153t-43 153t-117 51t-116.5 -51t-42.5 -153t42.5 -153t116.5 -51z" />
<glyph unicode="q" horiz-adv-x="571" d="M257 -10q-105 0 -164.5 71t-59.5 197t59.5 197t164.5 71q137 0 182 -113v103h79v-712h-83v294q-43 -108 -178 -108zM275 54q74 0 117 51t43 153t-43 153t-117 51t-116.5 -51t-42.5 -153t42.5 -153t116.5 -51z" />
<glyph unicode="r" horiz-adv-x="351" d="M136 0h-83v516h79v-122q21 67 57.5 97t94.5 30q22 0 47 -5v-72l-50 2q-67 0 -106 -51.5t-39 -145.5v-249z" />
<glyph unicode="s" horiz-adv-x="493" d="M246 -10q-213 0 -213 167h79q4 -54 33 -82t102 -28q130 0 130 96q0 65 -85 78l-101 15q-75 11 -109.5 41.5t-34.5 91.5q0 71 47 114t152 43q200 0 200 -159h-79q-5 49 -29 75.5t-92 26.5q-116 0 -116 -94q0 -35 18 -51t54 -21l102 -15q77 -11 116.5 -44t39.5 -97 q0 -70 -51.5 -113.5t-162.5 -43.5z" />
<glyph unicode="t" horiz-adv-x="331" d="M234 -5q-75 0 -105.5 27t-30.5 98v336h-88v60h88v156h83v-156h124v-60h-124v-338q0 -37 15 -49.5t55 -12.5l54 2v-58q-50 -5 -71 -5z" />
<glyph unicode="u" d="M226 -10q-88 0 -130.5 45.5t-42.5 139.5v341h83v-328q0 -66 26.5 -98.5t87.5 -32.5q65 0 103.5 46.5t38.5 124.5v288h83v-516h-79v95q-48 -105 -170 -105z" />
<glyph unicode="v" d="M314 0h-100l-201 516h86l165 -441l165 441h86z" />
<glyph unicode="w" horiz-adv-x="816" d="M618 0h-88l-122 409l-122 -409h-88l-185 516h86l147 -423l124 423h76l124 -423l147 423h86z" />
<glyph unicode="x" horiz-adv-x="508" d="M495 0h-92l-149 202l-149 -202h-92l193 267l-183 249h92l139 -189l139 189h92l-184 -249z" />
<glyph unicode="y" d="M60 -196v60h40q45 0 74.5 25.5t51.5 82.5l-213 544h86l164 -447l166 447h86l-211 -534q-41 -102 -85.5 -140t-118.5 -38h-40z" />
<glyph unicode="z" horiz-adv-x="448" d="M421 0h-395v57l290 399h-280v60h375v-57l-289 -399h299v-60z" />
<glyph unicode="{" horiz-adv-x="311" d="M295 -196h-59q-62 0 -97.5 36.5t-35.5 97.5v258q0 30 -18.5 48.5t-47.5 18.5h-21v60h21q29 0 47.5 18.5t18.5 48.5v258q0 61 35.5 97.5t97.5 36.5h59v-60h-43q-34 0 -54 -20t-20 -55v-253q0 -42 -24 -70t-66 -31q42 -3 66 -31t24 -70v-253q0 -35 20 -55t54 -20h43v-60z " />
<glyph unicode="|" horiz-adv-x="187" d="M128 -196h-69v978h69v-978z" />
<glyph unicode="}" horiz-adv-x="311" d="M75 -196h-59v60h43q35 0 54.5 20t19.5 55v253q0 42 24 70t66 31q-42 3 -66 31t-24 70v253q0 35 -19.5 55t-54.5 20h-43v60h59q62 0 98 -36.5t36 -97.5v-258q0 -30 18 -48.5t47 -18.5h21v-60h-21q-29 0 -47 -18.5t-18 -48.5v-258q0 -61 -36 -97.5t-98 -36.5z" />
<glyph unicode="~" horiz-adv-x="520" d="M366 283q-43 0 -108.5 42.5t-97.5 42.5q-28 0 -45.5 -22t-17.5 -63h-49q0 68 27.5 107t77.5 39q44 0 109.5 -42.5t97.5 -42.5q28 0 45.5 22t17.5 63h49q0 -68 -28 -107t-78 -39z" />
<glyph unicode="&#xa1;" horiz-adv-x="189" d="M137 -196h-86v226l20 290h46l20 -290v-226zM94 426q-25 0 -39 13.5t-14 34.5t14 34.5t39 13.5t39 -13.5t14 -34.5t-14 -34.5t-39 -13.5z" />
<glyph unicode="&#xa2;" horiz-adv-x="522" d="M293 -116h-38v107q-106 6 -164 76.5t-58 190.5q0 119 58 190t164 77v107h38v-107q101 -6 153.5 -63t52.5 -130h-75q-8 52 -40 87.5t-91 41.5v-406q114 9 131 133h75q0 -78 -53.5 -134.5t-152.5 -62.5v-107zM116 258q0 -93 36.5 -145t102.5 -58v406q-66 -7 -102.5 -58.5 t-36.5 -144.5z" />
<glyph unicode="&#xa3;" horiz-adv-x="585" d="M441 -10q-31 0 -107 21t-113 21q-32 0 -64 -8.5t-102 -33.5l-22 59q114 43 114 183q0 31 -13 76h-101v43h84q-2 5 -10 24.5t-10.5 27t-8.5 25t-8.5 29t-4.5 28t-2 31.5q0 95 63.5 150.5t175.5 55.5q115 0 177.5 -58t62.5 -165h-78q-16 156 -160 156q-71 0 -113 -38 t-42 -101q0 -18 2 -35t8 -37t8.5 -29t12 -34.5t11.5 -29.5h243v-43h-230q12 -46 12 -76q0 -97 -67 -150q40 15 80 15q33 0 103 -20t102 -20q70 0 108 24v-61q-46 -30 -111 -30z" />
<glyph unicode="&#xa4;" horiz-adv-x="585" d="M292 143q-73 0 -132 46l-78 -78l-34 34l78 78q-46 59 -46 133q0 75 46 132l-78 79l34 33l78 -78q57 46 132 46q76 0 132 -46l79 78l34 -33l-79 -79q47 -58 47 -132q0 -73 -47 -133l79 -78l-34 -34l-79 78q-57 -46 -132 -46zM292 207q63 0 106 43.5t43 105.5t-43 105.5 t-106 43.5t-105.5 -43.5t-42.5 -105.5t42.5 -105.5t105.5 -43.5z" />
<glyph unicode="&#xa5;" horiz-adv-x="618" d="M350 0h-82v131h-164v43h164v109h-164v43h146l-262 386h98l223 -336l223 336h98l-262 -386h146v-43h-164v-109h164v-43h-164v-131z" />
<glyph unicode="&#xa6;" horiz-adv-x="187" d="M128 -196h-69v418h69v-418zM128 364h-69v418h69v-418z" />
<glyph unicode="&#xa7;" horiz-adv-x="585" d="M552 215q0 -49 -28.5 -83.5t-88.5 -45.5q71 -41 71 -132q0 -73 -51 -116.5t-163 -43.5q-213 0 -213 167h79q4 -53 34 -81.5t101 -28.5q130 0 130 102q0 43 -18.5 68.5t-62.5 47.5l-203 99q-55 27 -80.5 58.5t-25.5 81.5q0 103 126 125q-66 48 -66 128q0 161 199 161 q200 0 200 -159h-79q-5 49 -29 75.5t-92 26.5q-116 0 -116 -102q0 -42 19 -68t58 -45l187 -91q59 -28 85.5 -59t26.5 -85zM469 210q0 34 -15.5 56.5t-51.5 40.5l-186 91q-100 -6 -100 -85q0 -61 61 -93l201 -99q91 8 91 89z" />
<glyph unicode="&#xa8;" horiz-adv-x="500" d="M168 625q-21 0 -33 11t-12 29q0 17 12 28.5t33 11.5q20 0 32 -11.5t12 -28.5q0 -18 -11.5 -29t-32.5 -11zM332 625q-21 0 -33 11t-12 29q0 17 12.5 28.5t32.5 11.5q21 0 33 -11.5t12 -28.5q0 -18 -12 -29t-33 -11z" />
<glyph unicode="&#xa9;" horiz-adv-x="815" d="M407 -10q-171 0 -272.5 101t-101.5 265t101.5 265t272.5 101t273 -101t102 -265t-102 -265t-273 -101zM407 43q145 0 230 86t85 227t-85 227t-230 86t-229.5 -86.5t-84.5 -226.5t84.5 -226.5t229.5 -86.5zM412 168q-80 0 -124.5 50t-44.5 138t44.5 138t124.5 50 q77 0 118 -41.5t41 -94.5h-59q-13 86 -100 86q-50 0 -78 -35.5t-28 -102.5t28 -102.5t78 -35.5q89 0 100 89h59q0 -57 -41.5 -98t-117.5 -41z" />
<glyph unicode="&#xaa;" horiz-adv-x="470" d="M192 256q-76 0 -117.5 36t-41.5 100q0 53 36.5 87t114.5 40l83 6q45 4 60.5 15.5t15.5 36.5q0 91 -105 91q-102 0 -109 -91h-72q0 69 44.5 107t135.5 38q180 0 180 -145v-198q0 -92 14 -114h-65q-20 27 -20 84q-34 -93 -154 -93zM212 309q62 0 96.5 43t34.5 108v45 q-17 -24 -76 -28l-62 -5q-98 -8 -98 -76q0 -41 26 -64t79 -23z" />
<glyph unicode="&#xab;" horiz-adv-x="462" d="M209 112l-150 143v64l150 143v-75l-103 -100l103 -100v-75zM403 112l-150 143v64l150 143v-75l-103 -100l103 -100v-75z" />
<glyph unicode="&#xac;" horiz-adv-x="520" d="M472 234h-70v180h-354v64h424v-244z" />
<glyph unicode="&#xad;" horiz-adv-x="352" d="M304 255h-256v64h256v-64z" />
<glyph unicode="&#xae;" horiz-adv-x="601" d="M300 200q-122 0 -194.5 72t-72.5 189t72.5 189t194.5 72t195 -72t73 -189t-73 -189t-195 -72zM300 236q104 0 165 61.5t61 163.5t-61 163.5t-165 61.5t-164.5 -61.5t-60.5 -163.5t60.5 -163.5t164.5 -61.5zM404 519q0 -52 -46 -65q43 -11 43 -54v-43q0 -17 3 -26h-42 q-6 14 -6 26v37q0 44 -52 44h-51v-107h-44v260h115q39 0 59.5 -19t20.5 -53zM360 515q0 22 -12 31.5t-40 9.5h-55v-82h55q28 0 40 9.5t12 31.5z" />
<glyph unicode="&#xaf;" horiz-adv-x="500" d="M381 639h-262v51h262v-51z" />
<glyph unicode="&#xb0;" horiz-adv-x="329" d="M164 450q-64 0 -102.5 39t-38.5 97t38.5 97t102.5 39q65 0 103.5 -39t38.5 -97t-38.5 -97t-103.5 -39zM164 498q40 0 63.5 24.5t23.5 63.5q0 38 -23.5 62.5t-63.5 24.5t-63 -24.5t-23 -62.5t23 -63t63 -25z" />
<glyph unicode="&#xb1;" horiz-adv-x="520" d="M472 0h-424v64h424v-64zM295 172h-70v166h-177v64h177v166h70v-166h177v-64h-177v-166z" />
<glyph unicode="&#xb2;" horiz-adv-x="359" d="M326 492h-293v35q0 68 25 104t88 58l65 24q55 21 55 78q0 38 -22 57.5t-60 19.5q-41 0 -63 -21.5t-26 -71.5h-53q0 143 141 143q67 0 105 -34t38 -94q0 -88 -94 -123l-68 -24q-39 -14 -54.5 -38t-17.5 -63h234v-50z" />
<glyph unicode="&#xb3;" horiz-adv-x="373" d="M186 486q-153 0 -153 143h53q4 -53 28.5 -73t71.5 -20q45 0 69.5 20t24.5 56q0 37 -18.5 54t-58.5 17h-57v45h51q77 0 77 66q0 35 -23.5 54.5t-64.5 19.5q-87 0 -94 -81h-53q0 62 38.5 96.5t108.5 34.5q67 0 107.5 -32t40.5 -86q0 -76 -70 -93q76 -18 76 -103 q0 -54 -42 -86t-112 -32z" />
<glyph unicode="&#xb4;" horiz-adv-x="500" d="M233 593h-63l84 143h89z" />
<glyph unicode="&#xb5;" d="M240 -10q-76 0 -104 47v-233h-83v712h83v-328q0 -66 26.5 -98.5t87.5 -32.5q65 0 103.5 46.5t38.5 124.5v288h83v-516h-79v95q-39 -105 -156 -105z" />
<glyph unicode="&#xb6;" horiz-adv-x="546" d="M487 -196h-65v848h-154v-848h-65v559q-79 0 -131 48t-52 126t52 126.5t131 48.5h284v-908z" />
<glyph unicode="&#xb7;" horiz-adv-x="189" d="M94 239q-25 0 -39 13.5t-14 34.5t14 34.5t39 13.5t39 -13.5t14 -34.5t-14 -34.5t-39 -13.5z" />
<glyph unicode="&#xb8;" horiz-adv-x="500" d="M340 -104q0 -69 -116 -69l-64 6v35h63q32 0 45 7t13 24q0 16 -13 23t-45 7h-28v24l49 58h36l-48 -58q108 0 108 -57z" />
<glyph unicode="&#xb9;" horiz-adv-x="252" d="M193 492h-59v334q-12 -18 -38 -27.5t-52 -9.5h-11v47q88 5 110 76h50v-420z" />
<glyph unicode="&#xba;" horiz-adv-x="497" d="M248 256q-103 0 -159 62t-56 171t56 171t159 62t159.5 -62t56.5 -171t-56.5 -171t-159.5 -62zM248 314q68 0 105 45t37 130t-37 130t-105 45q-67 0 -104 -45t-37 -130t37 -130t104 -45z" />
<glyph unicode="&#xbb;" horiz-adv-x="462" d="M209 255l-150 -143v75l103 100l-103 100v75l150 -143v-64zM403 255l-150 -143v75l103 100l-103 100v75l150 -143v-64z" />
<glyph unicode="&#xbc;" horiz-adv-x="731" d="M193 292h-59v334q-12 -18 -38 -27.5t-52 -9.5h-11v47q88 5 110 76h50v-420zM172 0h-57l382 712h57zM638 0h-58v111h-202v53l195 256h65v-262h60v-47h-60v-111zM580 158v195l-148 -195h148z" />
<glyph unicode="&#xbd;" horiz-adv-x="754" d="M193 292h-59v334q-12 -18 -38 -27.5t-52 -9.5h-11v47q88 5 110 76h50v-420zM172 0h-57l382 712h57zM721 0h-293v35q0 68 25 104t88 58l65 24q55 21 55 78q0 38 -22 57.5t-60 19.5q-41 0 -63 -21.5t-26 -71.5h-53q0 143 142 143q67 0 104.5 -34t37.5 -94q0 -88 -94 -123 l-68 -24q-39 -14 -54.5 -38t-16.5 -63h233v-50z" />
<glyph unicode="&#xbe;" horiz-adv-x="826" d="M186 286q-153 0 -153 143h53q4 -53 28.5 -73t71.5 -20q45 0 69.5 20t24.5 56q0 37 -18.5 54t-58.5 17h-57v45h51q77 0 77 66q0 35 -23.5 54.5t-64.5 19.5q-87 0 -94 -81h-53q0 62 38.5 96.5t108.5 34.5q67 0 107.5 -32t40.5 -86q0 -76 -70 -93q76 -18 76 -103 q0 -54 -42 -86t-112 -32zM268 0h-58l382 712h58zM733 0h-58v111h-202v53l196 256h64v-262h60v-47h-60v-111zM675 158v195l-148 -195h148z" />
<glyph unicode="&#xbf;" horiz-adv-x="525" d="M262 -206q-105 0 -167 55t-62 142q0 43 21 76.5t51 56t60.5 43.5t51.5 51.5t21 69.5v32h69v-32q0 -50 -19.5 -87t-47 -59t-55 -42t-47 -47t-19.5 -62q0 -57 40 -93.5t103 -36.5q136 0 152 156h78q0 -105 -60 -164t-170 -59zM272 426q-24 0 -38.5 13.5t-14.5 34.5 t14.5 34.5t38.5 13.5q25 0 39.5 -13.5t14.5 -34.5t-14.5 -34.5t-39.5 -13.5z" />
<glyph unicode="&#xc0;" horiz-adv-x="688" d="M675 0h-89l-71 180h-342l-71 -180h-89l279 712h104zM492 247l-148 383l-149 -383h297zM376 783h-64l-109 143h88z" />
<glyph unicode="&#xc1;" horiz-adv-x="688" d="M675 0h-89l-71 180h-342l-71 -180h-89l279 712h104zM492 247l-148 383l-149 -383h297zM376 783h-64l85 143h88z" />
<glyph unicode="&#xc2;" horiz-adv-x="688" d="M675 0h-89l-71 180h-342l-71 -180h-89l279 712h104zM492 247l-148 383l-149 -383h297zM485 783h-66l-75 95l-75 -95h-66l109 143h64z" />
<glyph unicode="&#xc3;" horiz-adv-x="688" d="M675 0h-89l-71 180h-342l-71 -180h-89l279 712h104zM492 247l-148 383l-149 -383h297zM404 797q-31 0 -66.5 31t-50.5 31q-39 0 -39 -62h-45q0 115 80 115q31 0 67 -30.5t51 -30.5q39 0 39 61h45q0 -115 -81 -115z" />
<glyph unicode="&#xc4;" horiz-adv-x="688" d="M675 0h-89l-71 180h-342l-71 -180h-89l279 712h104zM492 247l-148 383l-149 -383h297zM262 815q-21 0 -33 11t-12 29q0 17 12 28.5t33 11.5q20 0 32 -11.5t12 -28.5q0 -18 -11.5 -29t-32.5 -11zM426 815q-21 0 -33 11t-12 29q0 17 12.5 28.5t32.5 11.5q21 0 33 -11.5 t12 -28.5q0 -18 -12 -29t-33 -11z" />
<glyph unicode="&#xc5;" horiz-adv-x="688" d="M675 0h-89l-71 180h-342l-71 -180h-89l279 712h104zM492 247l-148 383l-149 -383h297zM344 725q-58 0 -91 30.5t-33 79.5t32.5 80t91.5 31t91.5 -31t32.5 -80t-33 -79.5t-91 -30.5zM344 769q34 0 52 18.5t18 47.5q0 30 -18 48.5t-52 18.5t-52 -18.5t-18 -48.5 q0 -29 18 -47.5t52 -18.5z" />
<glyph unicode="&#xc6;" horiz-adv-x="1032" d="M999 0h-489v180h-316l-92 -180h-89l359 712h627v-71h-403v-244h371v-68h-371v-258h403v-71zM510 247v394h-84l-200 -394h284z" />
<glyph unicode="&#xc7;" horiz-adv-x="716" d="M461 -104q0 -69 -116 -69l-64 6v35h63q32 0 45.5 7t13.5 24q0 16 -13.5 23t-45.5 7h-28v24l32 38q-152 7 -233.5 105t-81.5 260q0 167 87.5 266.5t250.5 99.5q141 0 226.5 -74t85.5 -184h-79q-10 84 -70 135.5t-163 51.5q-124 0 -188 -76.5t-64 -218.5t64 -218.5 t188 -76.5q103 0 163 51.5t70 141.5h79q0 -110 -80.5 -185t-218.5 -79l-31 -37q108 0 108 -57z" />
<glyph unicode="&#xc8;" horiz-adv-x="581" d="M548 0h-489v712h489v-71h-403v-244h371v-68h-371v-258h403v-71zM335 783h-63l-110 143h89z" />
<glyph unicode="&#xc9;" horiz-adv-x="581" d="M548 0h-489v712h489v-71h-403v-244h371v-68h-371v-258h403v-71zM335 783h-63l84 143h89z" />
<glyph unicode="&#xca;" horiz-adv-x="581" d="M548 0h-489v712h489v-71h-403v-244h371v-68h-371v-258h403v-71zM445 783h-67l-74 95l-75 -95h-66l108 143h65z" />
<glyph unicode="&#xcb;" horiz-adv-x="581" d="M548 0h-489v712h489v-71h-403v-244h371v-68h-371v-258h403v-71zM221 815q-21 0 -32.5 11t-11.5 29q0 17 12 28.5t32 11.5q21 0 33 -11.5t12 -28.5q0 -18 -12 -29t-33 -11zM386 815q-21 0 -33 11t-12 29q0 17 12 28.5t33 11.5t33 -11.5t12 -28.5q0 -18 -12 -29t-33 -11z " />
<glyph unicode="&#xcc;" horiz-adv-x="204" d="M145 0h-86v712h86v-712zM134 783h-64l-109 143h88z" />
<glyph unicode="&#xcd;" horiz-adv-x="204" d="M145 0h-86v712h86v-712zM134 783h-64l85 143h88z" />
<glyph unicode="&#xce;" horiz-adv-x="204" d="M145 0h-86v712h86v-712zM243 783h-66l-75 95l-75 -95h-66l109 143h64z" />
<glyph unicode="&#xcf;" horiz-adv-x="204" d="M145 0h-86v712h86v-712zM20 815q-21 0 -33 11t-12 29q0 17 12 28.5t33 11.5t33 -11.5t12 -28.5q0 -18 -12 -29t-33 -11zM184 815q-21 0 -32.5 11t-11.5 29q0 17 12 28.5t32 11.5q21 0 33 -11.5t12 -28.5q0 -18 -12 -29t-33 -11z" />
<glyph unicode="&#xd0;" horiz-adv-x="719" d="M686 356q0 -170 -85 -263t-253 -93h-269v338h-79v50h79v324h269q168 0 253 -93.5t85 -262.5zM375 338h-210v-269h186q249 0 249 287t-249 287h-186v-255h210v-50z" />
<glyph unicode="&#xd1;" horiz-adv-x="697" d="M638 0h-96l-400 593v-593h-83v712h96l400 -593v593h83v-712zM409 797q-31 0 -67 31t-51 31q-38 0 -38 -62h-45q0 115 80 115q31 0 67 -30.5t51 -30.5q38 0 38 61h46q0 -115 -81 -115z" />
<glyph unicode="&#xd2;" horiz-adv-x="743" d="M371 -10q-163 0 -250.5 99.5t-87.5 266.5t87.5 266.5t250.5 99.5q164 0 251.5 -99.5t87.5 -266.5t-87.5 -266.5t-251.5 -99.5zM371 61q124 0 188.5 76.5t64.5 218.5t-64.5 218.5t-188.5 76.5t-188 -76.5t-64 -218.5t64 -218.5t188 -76.5zM403 783h-63l-110 143h89z" />
<glyph unicode="&#xd3;" horiz-adv-x="743" d="M371 -10q-163 0 -250.5 99.5t-87.5 266.5t87.5 266.5t250.5 99.5q164 0 251.5 -99.5t87.5 -266.5t-87.5 -266.5t-251.5 -99.5zM371 61q124 0 188.5 76.5t64.5 218.5t-64.5 218.5t-188.5 76.5t-188 -76.5t-64 -218.5t64 -218.5t188 -76.5zM403 783h-63l84 143h89z" />
<glyph unicode="&#xd4;" horiz-adv-x="743" d="M371 -10q-163 0 -250.5 99.5t-87.5 266.5t87.5 266.5t250.5 99.5q164 0 251.5 -99.5t87.5 -266.5t-87.5 -266.5t-251.5 -99.5zM371 61q124 0 188.5 76.5t64.5 218.5t-64.5 218.5t-188.5 76.5t-188 -76.5t-64 -218.5t64 -218.5t188 -76.5zM512 783h-66l-75 95l-74 -95h-67 l109 143h65z" />
<glyph unicode="&#xd5;" horiz-adv-x="743" d="M371 -10q-163 0 -250.5 99.5t-87.5 266.5t87.5 266.5t250.5 99.5q164 0 251.5 -99.5t87.5 -266.5t-87.5 -266.5t-251.5 -99.5zM371 61q124 0 188.5 76.5t64.5 218.5t-64.5 218.5t-188.5 76.5t-188 -76.5t-64 -218.5t64 -218.5t188 -76.5zM432 797q-31 0 -67 31t-51 31 q-38 0 -38 -62h-46q0 115 81 115q31 0 67 -30.5t51 -30.5q38 0 38 61h45q0 -115 -80 -115z" />
<glyph unicode="&#xd6;" horiz-adv-x="743" d="M371 -10q-163 0 -250.5 99.5t-87.5 266.5t87.5 266.5t250.5 99.5q164 0 251.5 -99.5t87.5 -266.5t-87.5 -266.5t-251.5 -99.5zM371 61q124 0 188.5 76.5t64.5 218.5t-64.5 218.5t-188.5 76.5t-188 -76.5t-64 -218.5t64 -218.5t188 -76.5zM289 815q-21 0 -33 11t-12 29 q0 17 12.5 28.5t32.5 11.5q21 0 33 -11.5t12 -28.5q0 -18 -12 -29t-33 -11zM454 815q-21 0 -33 11t-12 29q0 17 12 28.5t33 11.5q20 0 32 -11.5t12 -28.5q0 -18 -11.5 -29t-32.5 -11z" />
<glyph unicode="&#xd7;" horiz-adv-x="520" d="M428 144l-168 168l-168 -168l-44 44l168 168l-168 168l44 44l168 -168l168 168l44 -44l-168 -168l168 -168z" />
<glyph unicode="&#xd8;" horiz-adv-x="743" d="M63 -10l-30 29l76 83q-76 94 -76 254q0 167 87.5 266.5t250.5 99.5q146 0 234 -82l75 82l30 -29l-77 -83q77 -97 77 -254q0 -167 -87.5 -266.5t-251.5 -99.5q-146 0 -233 81zM371 61q124 0 188.5 76.5t64.5 218.5q0 119 -46 194l-388 -421q63 -68 181 -68zM119 356 q0 -123 46 -194l387 421q-65 68 -181 68q-124 0 -188 -76.5t-64 -218.5z" />
<glyph unicode="&#xd9;" horiz-adv-x="677" d="M339 -10q-150 0 -220 69.5t-70 209.5v443h86v-436q0 -117 48 -166t156 -49q107 0 155 49t48 166v436h86v-443q0 -140 -70 -209.5t-219 -69.5zM370 783h-63l-110 143h89z" />
<glyph unicode="&#xda;" horiz-adv-x="677" d="M339 -10q-150 0 -220 69.5t-70 209.5v443h86v-436q0 -117 48 -166t156 -49q107 0 155 49t48 166v436h86v-443q0 -140 -70 -209.5t-219 -69.5zM370 783h-63l84 143h89z" />
<glyph unicode="&#xdb;" horiz-adv-x="677" d="M339 -10q-150 0 -220 69.5t-70 209.5v443h86v-436q0 -117 48 -166t156 -49q107 0 155 49t48 166v436h86v-443q0 -140 -70 -209.5t-219 -69.5zM480 783h-67l-74 95l-75 -95h-66l108 143h65z" />
<glyph unicode="&#xdc;" horiz-adv-x="677" d="M339 -10q-150 0 -220 69.5t-70 209.5v443h86v-436q0 -117 48 -166t156 -49q107 0 155 49t48 166v436h86v-443q0 -140 -70 -209.5t-219 -69.5zM256 815q-21 0 -32.5 11t-11.5 29q0 17 12 28.5t32 11.5q21 0 33 -11.5t12 -28.5q0 -18 -12 -29t-33 -11zM421 815 q-21 0 -33 11t-12 29q0 17 12 28.5t33 11.5t33 -11.5t12 -28.5q0 -18 -12 -29t-33 -11z" />
<glyph unicode="&#xdd;" horiz-adv-x="668" d="M291 0v300l-278 412h100l221 -332l221 332h100l-278 -412v-300h-86zM366 783h-64l85 143h88z" />
<glyph unicode="&#xde;" horiz-adv-x="629" d="M596 356q0 -115 -70.5 -176.5t-191.5 -61.5h-189v-118h-86v712h86v-118h189q121 0 191.5 -61.5t70.5 -176.5zM510 356q0 85 -48 128.5t-138 43.5h-179v-344h179q90 0 138 43.5t48 128.5z" />
<glyph unicode="&#xdf;" horiz-adv-x="571" d="M334 -6q-34 0 -98 6v59l85 -3q66 0 100 34t34 91q0 35 -23.5 68t-46.5 62.5t-23 54.5q0 20 25 66t25 83q0 65 -36 104t-102 39t-102 -39t-36 -104v-515h-83v515q0 90 55 148.5t162 58.5q108 0 163 -58.5t55 -148.5q0 -37 -25 -83t-25 -66q0 -18 15.5 -39.5t34.5 -39.5 t34.5 -46.5t15.5 -59.5q0 -84 -51 -135.5t-153 -51.5z" />
<glyph unicode="&#xe0;" d="M216 -10q-87 0 -135 41.5t-48 114.5q0 61 42 99.5t132 46.5l95 8q52 4 71 17t19 42q0 107 -123 107q-119 0 -128 -107h-80q0 79 51 123t156 44t156 -44t51 -123v-227q0 -105 16 -132h-73q-22 30 -22 98q-42 -108 -180 -108zM238 48q73 0 113.5 50.5t40.5 126.5v51 q-18 -24 -90 -30l-71 -6q-115 -8 -115 -89q0 -47 30 -75t92 -28zM300 593h-64l-109 143h88z" />
<glyph unicode="&#xe1;" d="M216 -10q-87 0 -135 41.5t-48 114.5q0 61 42 99.5t132 46.5l95 8q52 4 71 17t19 42q0 107 -123 107q-119 0 -128 -107h-80q0 79 51 123t156 44t156 -44t51 -123v-227q0 -105 16 -132h-73q-22 30 -22 98q-42 -108 -180 -108zM238 48q73 0 113.5 50.5t40.5 126.5v51 q-18 -24 -90 -30l-71 -6q-115 -8 -115 -89q0 -47 30 -75t92 -28zM300 593h-64l85 143h88z" />
<glyph unicode="&#xe2;" d="M216 -10q-87 0 -135 41.5t-48 114.5q0 61 42 99.5t132 46.5l95 8q52 4 71 17t19 42q0 107 -123 107q-119 0 -128 -107h-80q0 79 51 123t156 44t156 -44t51 -123v-227q0 -105 16 -132h-73q-22 30 -22 98q-42 -108 -180 -108zM238 48q73 0 113.5 50.5t40.5 126.5v51 q-18 -24 -90 -30l-71 -6q-115 -8 -115 -89q0 -47 30 -75t92 -28zM409 593h-66l-75 95l-75 -95h-66l109 143h64z" />
<glyph unicode="&#xe3;" d="M216 -10q-87 0 -135 41.5t-48 114.5q0 61 42 99.5t132 46.5l95 8q52 4 71 17t19 42q0 107 -123 107q-119 0 -128 -107h-80q0 79 51 123t156 44t156 -44t51 -123v-227q0 -105 16 -132h-73q-22 30 -22 98q-42 -108 -180 -108zM238 48q73 0 113.5 50.5t40.5 126.5v51 q-18 -24 -90 -30l-71 -6q-115 -8 -115 -89q0 -47 30 -75t92 -28zM328 607q-31 0 -66.5 31t-50.5 31q-39 0 -39 -62h-45q0 115 80 115q31 0 67 -30.5t51 -30.5q39 0 39 61h45q0 -115 -81 -115z" />
<glyph unicode="&#xe4;" d="M216 -10q-87 0 -135 41.5t-48 114.5q0 61 42 99.5t132 46.5l95 8q52 4 71 17t19 42q0 107 -123 107q-119 0 -128 -107h-80q0 79 51 123t156 44t156 -44t51 -123v-227q0 -105 16 -132h-73q-22 30 -22 98q-42 -108 -180 -108zM238 48q73 0 113.5 50.5t40.5 126.5v51 q-18 -24 -90 -30l-71 -6q-115 -8 -115 -89q0 -47 30 -75t92 -28zM186 625q-21 0 -33 11t-12 29q0 17 12 28.5t33 11.5q20 0 32 -11.5t12 -28.5q0 -18 -11.5 -29t-32.5 -11zM350 625q-21 0 -33 11t-12 29q0 17 12.5 28.5t32.5 11.5q21 0 33 -11.5t12 -28.5q0 -18 -12 -29 t-33 -11z" />
<glyph unicode="&#xe5;" d="M216 -10q-87 0 -135 41.5t-48 114.5q0 61 42 99.5t132 46.5l95 8q52 4 71 17t19 42q0 107 -123 107q-119 0 -128 -107h-80q0 79 51 123t156 44t156 -44t51 -123v-227q0 -105 16 -132h-73q-22 30 -22 98q-42 -108 -180 -108zM238 48q73 0 113.5 50.5t40.5 126.5v51 q-18 -24 -90 -30l-71 -6q-115 -8 -115 -89q0 -47 30 -75t92 -28zM268 579q-59 0 -91.5 31t-32.5 80t33 79.5t91 30.5t91 -30.5t33 -79.5t-32.5 -80t-91.5 -31zM268 623q33 0 51.5 18.5t18.5 48.5t-18 48t-52 18t-52 -18t-18 -48t18.5 -48.5t51.5 -18.5z" />
<glyph unicode="&#xe6;" horiz-adv-x="908" d="M640 -10q-169 0 -213 154q-41 -154 -211 -154q-87 0 -135 41.5t-48 114.5q0 61 42 99.5t132 46.5l95 8q52 4 71 17t19 42q0 107 -123 107q-119 0 -128 -107h-80q0 79 51 123t156 44q156 0 177 -117q50 117 189 117q115 0 178 -71.5t63 -184.5q0 -17 -1 -25h-399 q4 -197 165 -197q60 0 98 29t52 80h74q-18 -80 -74 -123.5t-150 -43.5zM238 48q73 0 113.5 50.5t40.5 126.5v54q-19 -27 -90 -33l-71 -6q-115 -8 -115 -89q0 -47 30 -75t92 -28zM634 468q-68 0 -109.5 -42t-49.5 -125h318q-8 83 -49.5 125t-109.5 42z" />
<glyph unicode="&#xe7;" horiz-adv-x="522" d="M364 -104q0 -69 -116 -69l-64 6v35h63q32 0 45 7t13 24q0 16 -13 23t-45 7h-28v24l32 38q-104 7 -161 77.5t-57 189.5q0 125 63.5 196.5t177.5 71.5q110 0 167.5 -58.5t57.5 -135.5h-75q-8 57 -45 93.5t-105 36.5q-75 0 -116.5 -52t-41.5 -152t41.5 -152t116.5 -52 q64 0 102.5 34.5t47.5 99.5h75q0 -79 -55.5 -136.5t-157.5 -61.5l-30 -37q108 0 108 -57z" />
<glyph unicode="&#xe8;" horiz-adv-x="549" d="M280 -10q-118 0 -182.5 71t-64.5 197q0 123 62.5 195.5t178.5 72.5t179 -71.5t63 -184.5q0 -17 -2 -25h-398q1 -101 44.5 -149t119.5 -48q60 0 98.5 29t52.5 80h74q-39 -167 -225 -167zM274 468q-68 0 -109 -42t-49 -125h317q-8 83 -49.5 125t-109.5 42zM306 593h-63 l-110 143h89z" />
<glyph unicode="&#xe9;" horiz-adv-x="549" d="M280 -10q-118 0 -182.5 71t-64.5 197q0 123 62.5 195.5t178.5 72.5t179 -71.5t63 -184.5q0 -17 -2 -25h-398q1 -101 44.5 -149t119.5 -48q60 0 98.5 29t52.5 80h74q-39 -167 -225 -167zM274 468q-68 0 -109 -42t-49 -125h317q-8 83 -49.5 125t-109.5 42zM306 593h-63 l84 143h89z" />
<glyph unicode="&#xea;" horiz-adv-x="549" d="M280 -10q-118 0 -182.5 71t-64.5 197q0 123 62.5 195.5t178.5 72.5t179 -71.5t63 -184.5q0 -17 -2 -25h-398q1 -101 44.5 -149t119.5 -48q60 0 98.5 29t52.5 80h74q-39 -167 -225 -167zM274 468q-68 0 -109 -42t-49 -125h317q-8 83 -49.5 125t-109.5 42zM415 593h-66 l-75 95l-74 -95h-67l109 143h65z" />
<glyph unicode="&#xeb;" horiz-adv-x="549" d="M280 -10q-118 0 -182.5 71t-64.5 197q0 123 62.5 195.5t178.5 72.5t179 -71.5t63 -184.5q0 -17 -2 -25h-398q1 -101 44.5 -149t119.5 -48q60 0 98.5 29t52.5 80h74q-39 -167 -225 -167zM274 468q-68 0 -109 -42t-49 -125h317q-8 83 -49.5 125t-109.5 42zM192 625 q-21 0 -33 11t-12 29q0 17 12.5 28.5t32.5 11.5q21 0 33 -11.5t12 -28.5q0 -18 -12 -29t-33 -11zM357 625q-21 0 -33 11t-12 29q0 17 12 28.5t33 11.5q20 0 32 -11.5t12 -28.5q0 -18 -11.5 -29t-32.5 -11z" />
<glyph unicode="&#xec;" horiz-adv-x="189" d="M136 0h-83v516h83v-516zM126 593h-63l-110 143h89z" />
<glyph unicode="&#xed;" horiz-adv-x="189" d="M136 0h-83v516h83v-516zM126 593h-63l84 143h89z" />
<glyph unicode="&#xee;" horiz-adv-x="189" d="M136 0h-83v516h83v-516zM235 593h-66l-75 95l-74 -95h-67l109 143h65z" />
<glyph unicode="&#xef;" horiz-adv-x="189" d="M136 0h-83v516h83v-516zM12 625q-21 0 -33 11t-12 29q0 17 12 28.5t33 11.5t33 -11.5t12 -28.5q0 -18 -12 -29t-33 -11zM177 625q-21 0 -33 11t-12 29q0 17 12 28.5t33 11.5q20 0 32 -11.5t12 -28.5q0 -18 -11.5 -29t-32.5 -11z" />
<glyph unicode="&#xf0;" horiz-adv-x="561" d="M280 -10q-118 0 -182.5 68t-64.5 185q0 116 60.5 184.5t169.5 68.5q98 0 151 -66q-40 83 -119 165l-158 -44v47l123 34q-33 33 -87 80h81q36 -32 69 -63l141 40v-46l-106 -30q170 -181 170 -370q0 -117 -65 -185t-183 -68zM280 50q79 0 122 50t43 143t-43 143t-122 50 q-78 0 -121 -50t-43 -143t43 -143t121 -50z" />
<glyph unicode="&#xf1;" d="M475 0h-83v328q0 66 -26.5 98.5t-87.5 32.5q-65 0 -103.5 -46.5t-38.5 -124.5v-288h-83v516h79v-95q48 105 169 105q88 0 131 -45.5t43 -139.5v-341zM324 607q-31 0 -66.5 31t-50.5 31q-39 0 -39 -62h-45q0 115 80 115q31 0 67 -30.5t51 -30.5q39 0 39 61h45 q0 -115 -81 -115z" />
<glyph unicode="&#xf2;" horiz-adv-x="561" d="M280 -10q-118 0 -182.5 71t-64.5 197q0 125 64.5 196.5t182.5 71.5q119 0 183.5 -71.5t64.5 -196.5q0 -126 -64.5 -197t-183.5 -71zM280 54q80 0 122.5 52t42.5 152t-42.5 152t-122.5 52q-79 0 -121.5 -52t-42.5 -152t42.5 -152t121.5 -52zM312 593h-63l-110 143h89z" />
<glyph unicode="&#xf3;" horiz-adv-x="561" d="M280 -10q-118 0 -182.5 71t-64.5 197q0 125 64.5 196.5t182.5 71.5q119 0 183.5 -71.5t64.5 -196.5q0 -126 -64.5 -197t-183.5 -71zM280 54q80 0 122.5 52t42.5 152t-42.5 152t-122.5 52q-79 0 -121.5 -52t-42.5 -152t42.5 -152t121.5 -52zM312 593h-63l84 143h89z" />
<glyph unicode="&#xf4;" horiz-adv-x="561" d="M280 -10q-118 0 -182.5 71t-64.5 197q0 125 64.5 196.5t182.5 71.5q119 0 183.5 -71.5t64.5 -196.5q0 -126 -64.5 -197t-183.5 -71zM280 54q80 0 122.5 52t42.5 152t-42.5 152t-122.5 52q-79 0 -121.5 -52t-42.5 -152t42.5 -152t121.5 -52zM421 593h-66l-75 95l-74 -95 h-67l109 143h65z" />
<glyph unicode="&#xf5;" horiz-adv-x="561" d="M280 -10q-118 0 -182.5 71t-64.5 197q0 125 64.5 196.5t182.5 71.5q119 0 183.5 -71.5t64.5 -196.5q0 -126 -64.5 -197t-183.5 -71zM280 54q80 0 122.5 52t42.5 152t-42.5 152t-122.5 52q-79 0 -121.5 -52t-42.5 -152t42.5 -152t121.5 -52zM341 607q-31 0 -67 31t-51 31 q-38 0 -38 -62h-46q0 115 81 115q31 0 67 -30.5t51 -30.5q38 0 38 61h45q0 -115 -80 -115z" />
<glyph unicode="&#xf6;" horiz-adv-x="561" d="M280 -10q-118 0 -182.5 71t-64.5 197q0 125 64.5 196.5t182.5 71.5q119 0 183.5 -71.5t64.5 -196.5q0 -126 -64.5 -197t-183.5 -71zM280 54q80 0 122.5 52t42.5 152t-42.5 152t-122.5 52q-79 0 -121.5 -52t-42.5 -152t42.5 -152t121.5 -52zM198 625q-21 0 -33 11t-12 29 q0 17 12.5 28.5t32.5 11.5q21 0 33 -11.5t12 -28.5q0 -18 -12 -29t-33 -11zM363 625q-21 0 -33 11t-12 29q0 17 12 28.5t33 11.5q20 0 32 -11.5t12 -28.5q0 -18 -11.5 -29t-32.5 -11z" />
<glyph unicode="&#xf7;" horiz-adv-x="520" d="M260 133q-21 0 -33 12t-12 29q0 18 12 29.5t33 11.5t33 -11.5t12 -29.5q0 -17 -12 -29t-33 -12zM472 324h-424v64h424v-64zM260 497q-21 0 -33 11.5t-12 29.5q0 17 12 28.5t33 11.5t33 -11.5t12 -28.5q0 -18 -12 -29.5t-33 -11.5z" />
<glyph unicode="&#xf8;" horiz-adv-x="561" d="M60 -10l-27 26l53 58q-53 68 -53 184q0 125 64.5 196.5t182.5 71.5q103 0 168 -57l53 57l27 -26l-54 -59q54 -69 54 -183q0 -126 -64.5 -197t-183.5 -71q-104 0 -168 56zM116 258q0 -75 25 -125l257 281q-42 48 -118 48q-79 0 -121.5 -52t-42.5 -152zM280 54 q80 0 122.5 52t42.5 152q0 74 -25 124l-258 -281q42 -47 118 -47z" />
<glyph unicode="&#xf9;" d="M226 -10q-88 0 -130.5 45.5t-42.5 139.5v341h83v-328q0 -66 26.5 -98.5t87.5 -32.5q65 0 103.5 46.5t38.5 124.5v288h83v-516h-79v95q-48 -105 -170 -105zM296 593h-64l-109 143h88z" />
<glyph unicode="&#xfa;" d="M226 -10q-88 0 -130.5 45.5t-42.5 139.5v341h83v-328q0 -66 26.5 -98.5t87.5 -32.5q65 0 103.5 46.5t38.5 124.5v288h83v-516h-79v95q-48 -105 -170 -105zM296 593h-64l85 143h88z" />
<glyph unicode="&#xfb;" d="M226 -10q-88 0 -130.5 45.5t-42.5 139.5v341h83v-328q0 -66 26.5 -98.5t87.5 -32.5q65 0 103.5 46.5t38.5 124.5v288h83v-516h-79v95q-48 -105 -170 -105zM405 593h-66l-75 95l-75 -95h-66l109 143h64z" />
<glyph unicode="&#xfc;" d="M226 -10q-88 0 -130.5 45.5t-42.5 139.5v341h83v-328q0 -66 26.5 -98.5t87.5 -32.5q65 0 103.5 46.5t38.5 124.5v288h83v-516h-79v95q-48 -105 -170 -105zM182 625q-21 0 -33 11t-12 29q0 17 12 28.5t33 11.5q20 0 32 -11.5t12 -28.5q0 -18 -11.5 -29t-32.5 -11zM346 625 q-21 0 -33 11t-12 29q0 17 12.5 28.5t32.5 11.5q21 0 33 -11.5t12 -28.5q0 -18 -12 -29t-33 -11z" />
<glyph unicode="&#xfd;" d="M60 -196v60h40q45 0 74.5 25.5t51.5 82.5l-213 544h86l164 -447l166 447h86l-211 -534q-41 -102 -85.5 -140t-118.5 -38h-40zM296 593h-64l85 143h88z" />
<glyph unicode="&#xfe;" horiz-adv-x="571" d="M314 -10q-134 0 -178 108v-294h-83v908h83v-294q44 108 178 108q105 0 164.5 -71t59.5 -197t-59.5 -197t-164.5 -71zM295 54q74 0 117 51t43 153t-43 153t-117 51t-116.5 -51t-42.5 -153t42.5 -153t116.5 -51z" />
<glyph unicode="&#xff;" d="M60 -196v60h40q45 0 74.5 25.5t51.5 82.5l-213 544h86l164 -447l166 447h86l-211 -534q-41 -102 -85.5 -140t-118.5 -38h-40zM346 625q-21 0 -33 11t-12 29q0 17 12.5 28.5t32.5 11.5q21 0 33 -11.5t12 -28.5q0 -18 -12 -29t-33 -11zM182 625q-21 0 -33 11t-12 29 q0 17 12 28.5t33 11.5q20 0 32 -11.5t12 -28.5q0 -18 -11.5 -29t-32.5 -11z" />
<glyph unicode="&#x152;" horiz-adv-x="1076" d="M1043 0h-672q-168 0 -253 93t-85 263q0 169 85 262.5t253 93.5h672v-71h-403v-244h371v-68h-371v-258h403v-71zM119 356q0 -287 249 -287h186v574h-186q-249 0 -249 -287z" />
<glyph unicode="&#x153;" horiz-adv-x="961" d="M693 -10q-162 0 -206 145q-45 -145 -207 -145q-118 0 -182.5 71t-64.5 197q0 125 64.5 196.5t182.5 71.5q162 0 206 -145q46 145 201 145q115 0 178 -71.5t63 -184.5q0 -17 -1 -25h-399q4 -197 165 -197q60 0 98 29t52 80h74q-18 -80 -74 -123.5t-150 -43.5zM280 54 q80 0 122.5 52t42.5 152t-42.5 152t-122.5 52q-79 0 -121.5 -52t-42.5 -152t42.5 -152t121.5 -52zM687 468q-68 0 -109.5 -42t-49.5 -125h318q-8 83 -49.5 125t-109.5 42z" />
<glyph unicode="&#x178;" horiz-adv-x="668" d="M291 0v300l-278 412h100l221 -332l221 332h100l-278 -412v-300h-86zM252 815q-21 0 -33 11t-12 29q0 17 12 28.5t33 11.5q20 0 32 -11.5t12 -28.5q0 -18 -11.5 -29t-32.5 -11zM416 815q-21 0 -33 11t-12 29q0 17 12.5 28.5t32.5 11.5q21 0 33 -11.5t12 -28.5 q0 -18 -12 -29t-33 -11z" />
<glyph unicode="&#x2c6;" horiz-adv-x="500" d="M391 593h-66l-75 95l-75 -95h-66l109 143h64z" />
<glyph unicode="&#x2dc;" horiz-adv-x="500" d="M310 607q-31 0 -66.5 31t-50.5 31q-39 0 -39 -62h-45q0 115 80 115q31 0 67 -30.5t51 -30.5q39 0 39 61h45q0 -115 -81 -115z" />
<glyph unicode="&#x2000;" horiz-adv-x="473" />
<glyph unicode="&#x2001;" horiz-adv-x="946" />
<glyph unicode="&#x2002;" horiz-adv-x="473" />
<glyph unicode="&#x2003;" horiz-adv-x="946" />
<glyph unicode="&#x2004;" horiz-adv-x="315" />
<glyph unicode="&#x2005;" horiz-adv-x="236" />
<glyph unicode="&#x2006;" horiz-adv-x="157" />
<glyph unicode="&#x2007;" horiz-adv-x="157" />
<glyph unicode="&#x2008;" horiz-adv-x="118" />
<glyph unicode="&#x2009;" horiz-adv-x="189" />
<glyph unicode="&#x200a;" horiz-adv-x="52" />
<glyph unicode="&#x2010;" horiz-adv-x="352" d="M304 255h-256v64h256v-64z" />
<glyph unicode="&#x2011;" horiz-adv-x="352" d="M304 255h-256v64h256v-64z" />
<glyph unicode="&#x2012;" horiz-adv-x="352" d="M304 255h-256v64h256v-64z" />
<glyph unicode="&#x2013;" horiz-adv-x="522" d="M474 255h-426v64h426v-64z" />
<glyph unicode="&#x2014;" horiz-adv-x="862" d="M814 255h-766v64h766v-64z" />
<glyph unicode="&#x2018;" horiz-adv-x="189" d="M130 467h-71v109q0 94 56 136l43 -19q-28 -43 -28 -117v-109z" />
<glyph unicode="&#x2019;" horiz-adv-x="189" d="M74 467l-43 19q28 46 28 117v109h71v-109q0 -94 -56 -136z" />
<glyph unicode="&#x201a;" horiz-adv-x="189" d="M74 -139l-43 18q28 46 28 118v109h71v-109q0 -94 -56 -136z" />
<glyph unicode="&#x201c;" horiz-adv-x="363" d="M130 467h-71v109q0 94 56 136l43 -19q-28 -43 -28 -117v-109zM304 467h-71v109q0 94 56 136l43 -19q-28 -45 -28 -117v-109z" />
<glyph unicode="&#x201d;" horiz-adv-x="363" d="M74 467l-43 19q28 46 28 117v109h71v-109q0 -94 -56 -136zM248 467l-43 19q28 44 28 117v109h71v-109q0 -94 -56 -136z" />
<glyph unicode="&#x201e;" horiz-adv-x="363" d="M74 -139l-43 18q28 46 28 118v109h71v-109q0 -94 -56 -136zM248 -139l-43 18q28 44 28 118v109h71v-109q0 -94 -56 -136z" />
<glyph unicode="&#x2022;" horiz-adv-x="312" d="M156 184q-52 0 -82.5 29.5t-30.5 73.5t30.5 73.5t82.5 29.5t82.5 -29.5t30.5 -73.5t-30.5 -73.5t-82.5 -29.5z" />
<glyph unicode="&#x2026;" horiz-adv-x="566" d="M94 -6q-25 0 -39 13.5t-14 34.5q0 20 14 34t39 14t39 -14t14 -34q0 -21 -14 -34.5t-39 -13.5zM283 -6q-25 0 -39 13.5t-14 34.5q0 20 14 34t39 14t39 -14t14 -34q0 -21 -14 -34.5t-39 -13.5zM471 -6q-24 0 -38.5 13.5t-14.5 34.5q0 20 14.5 34t38.5 14q25 0 39.5 -14 t14.5 -34q0 -21 -14.5 -34.5t-39.5 -13.5z" />
<glyph unicode="&#x202f;" horiz-adv-x="189" />
<glyph unicode="&#x2039;" horiz-adv-x="268" d="M209 112l-150 143v64l150 143v-75l-103 -100l103 -100v-75z" />
<glyph unicode="&#x203a;" horiz-adv-x="268" d="M209 255l-150 -143v75l103 100l-103 100v75l150 -143v-64z" />
<glyph unicode="&#x205f;" horiz-adv-x="236" />
<glyph unicode="&#x20ac;" horiz-adv-x="585" d="M411 -10q-136 0 -219.5 70t-108.5 192h-50v43h43q-3 29 -3 61q0 31 3 61h-43v43h50q25 122 108.5 192t219.5 70q83 0 141 -25v-64q-63 22 -141 22q-99 0 -160 -50t-81 -145h276v-43h-284q-3 -30 -3 -61q0 -32 3 -61h284v-43h-276q20 -95 81 -145t160 -50q83 0 141 22v-64 q-58 -25 -141 -25z" />
<glyph unicode="&#x2122;" horiz-adv-x="581" d="M140 452h-45v223h-76v37h197v-37h-76v-223zM521 452h-43v212l-76 -212h-39l-75 212v-212h-44v260h68l71 -198l71 198h67v-260z" />
<glyph unicode="&#x25fc;" horiz-adv-x="515" d="M0 515h515v-515h-515v515z" />
</font>
</defs>
</svg>
