<svg width="580" height="512" enable-background="new 0 0 512.001 512.001" version="1.1" viewBox="0 0 580 512" xmlns="http://www.w3.org/2000/svg" xmlns:xhtml="http://www.w3.org/1999/xhtml"><g transform="translate(34.3)" fill="#6b676e"><path d="m240 103c-2.67 0-5.29-1.29-6.87-3.68-7.55-11.3-16.8-17.9-28.1-20-24.6-4.58-50.7 13.7-51 13.9-3.72 2.64-8.86 1.76-11.5-1.94-2.64-3.71-1.78-8.85 1.93-11.5 1.29-0.926 31.9-22.5 63.5-16.7 15.8 2.9 28.9 12 39 27.1 2.53 3.8 1.51 8.91-2.29 11.4-1.41 0.934-3 1.39-4.57 1.39z"/><path d="m273 103c2.67 0 5.29-1.29 6.87-3.68 7.55-11.3 16.8-17.9 28.1-20 24.6-4.58 50.7 13.7 51 13.9 3.72 2.64 8.86 1.76 11.5-1.94 2.64-3.71 1.78-8.85-1.93-11.5-1.29-0.926-31.9-22.5-63.5-16.7-15.8 2.9-28.9 12-39 27.1-2.53 3.8-1.51 8.91 2.29 11.4 1.41 0.934 3 1.39 4.57 1.39z"/></g><path d="m348 136c0-27.3-25.9-49.5-57.8-49.5s-57.8 22.2-57.8 49.5" fill="#585661"/><ellipse cx="290" cy="318" rx="107" ry="132" fill="#ffd750"/><g transform="translate(33.7)" fill="#6b676e"><path d="m163 253c-6.04 13.2-10.2 27.8-12.2 43.4 16.8 7.67 48.1 18.1 106 18.1 57.6 0 88.9-10.4 106-18.1-2.04-15.5-6.21-30.2-12.2-43.4-19.7 5.96-49.2 11.5-93.5 11.5-44.3-1e-3 -73.8-5.52-93.5-11.5z"/><path d="m150 335c2.44 22.9 9.64 43.9 20.4 61.6 18.6 6.29 45.9 11.9 85.9 11.9s67.3-5.61 85.9-11.9c10.7-17.7 17.9-38.7 20.4-61.6-18.8 8.16-51.1 17.7-106 17.7-55.2 0-87.4-9.54-106-17.7z"/></g><path d="m360 182c0 29.6-14.2 53.6-70.1 53.6s-70.1-24-70.1-53.6 14.2-53.6 70.1-53.6 70.1 24 70.1 53.6z" fill="#585661"/><path d="m364 161c0 22.8-15 41.3-74.3 41.3s-74.3-18.5-74.3-41.3 15-41.3 74.3-41.3 74.3 18.5 74.3 41.3z" fill="#6b676e"/><g class="animate right"><path d="m505 260c-131-122-157-129-157-129 19.3 22.7 11.9 41 8.64 55.2-16.5 72.9 14.4 118 33 132 39.7 30.9 157 69.1 157 41.3-1e-3 -43.3-17.2-76.7-41.3-99z" fill="#ffebd2"/><path d="m518 274c-4.02-5.06-8.26-9.86-12.9-14.1-2.66-2.47-5.2-4.82-7.77-7.19-26.8-5.79-62.7-13.6-81.3-17.4-20.8-22.7-46.2-48.2-57.2-59.1-0.505 2.22-1.05 4.37-1.56 6.43-0.236 0.973-0.509 2.08-0.716 3-0.754 3.33-1.31 6.54-1.87 9.75 31.5 31.6 71.4 73.5 77 84.7 3.05 6.1 14.5 41.8 20.4 69.8 0.014 5e-3 0.028 0.011 0.042 0.016 5.96 2.29 12 4.45 18 6.43 1e-3 1e-3 2e-3 1e-3 2e-3 1e-3 -5.36-31.2-19.8-76-23.6-83.6-1.88-3.77-6.3-9.66-12.2-16.7 30.3 6.4 65.6 14.1 83 17.8 0.227 0.056 0.45 0.115 0.676 0.172z" fill="#ffdeb7"/></g><g class="animate left"><path d="m75.3 260c131-122 157-129 157-129-19.3 22.7-11.9 41-8.64 55.2 16.5 72.9-14.4 118-33 132-39.7 30.9-157 69.1-157 41.3 0-43.3 17.2-76.7 41.3-99z" fill="#ffebd2"/><path d="m62.4 274c4.02-5.06 8.26-9.86 12.9-14.1 2.66-2.47 5.2-4.82 7.77-7.19 26.8-5.79 62.7-13.6 81.3-17.4 20.8-22.7 46.2-48.2 57.2-59.1 0.505 2.22 1.05 4.37 1.56 6.43 0.236 0.973 0.509 2.08 0.716 3 0.754 3.33 1.31 6.54 1.87 9.75-31.5 31.6-71.4 73.5-77 84.7-3.05 6.1-14.5 41.8-20.4 69.8-0.014 5e-3 -0.028 0.011-0.042 0.016-5.96 2.29-12 4.45-18 6.43l-3e-3 1e-3c5.36-31.2 19.8-76 23.6-83.6 1.88-3.77 6.3-9.66 12.2-16.7-30.3 6.4-65.6 14.1-83 17.8-0.227 0.056-0.449 0.115-0.676 0.172z" fill="#ffdeb7"/></g><xhtml:style type="text/css">@keyframes FlyBeeRight{from{transform:rotate(-3deg)}to{transform:rotate(8deg)}}@keyframes FlyBeeLeft{from{transform:rotate(3deg)}to{transform:rotate(-8deg)}}svg:hover .animate{animation-play-state:running}.animate{transform-box:fill-box;animation-duration:0.05s;animation-direction:alternate;animation-play-state:paused;animation-iteration-count:infinite;animation-timing-function:ease-in-out}.animate.right{animation-name:FlyBeeRight;transform-origin:left top}.animate.left{animation-name:FlyBeeLeft;transform-origin:right top}</xhtml:style></svg>
