<?xml version="1.0" encoding="UTF-8"?>
<svg width="685" height="181" enable-background="new 0 0 841.89 595.28" version="1.1" viewBox="0 0 685 181" xml:space="preserve" xmlns="http://www.w3.org/2000/svg">
<g transform="matrix(1 0 0 1 -79 -203)"><g fill="#fff">
	<path d="m399 219c0.53-1.87 1.66-3.45 3.38-4.74 1.71-1.29 3.56-1.93 5.54-1.93 1.86 0 3.3 0.646 4.36 1.93 1.06 1.29 1.33 2.87 0.803 4.74l-8.3 29.6c3.25-1.88 6.67-3.34 10.3-4.4 3.63-1.06 7.24-1.59 10.8-1.59 4.57 0 8.66 0.82 12.3 2.46 3.61 1.64 6.56 3.9 8.84 6.77 2.28 2.88 3.74 6.26 4.38 10.1 0.646 3.87 0.352 7.98-0.863 12.3l-7.12 25.3c-1.22 4.34-3.27 8.44-6.15 12.3s-6.24 7.25-10.1 10.1c-3.85 2.88-8.02 5.13-12.6 6.77-4.54 1.64-9.1 2.47-13.7 2.47-4.7 0-8.83-0.823-12.4-2.47-3.56-1.64-6.48-3.89-8.76-6.77-2.29-2.87-3.75-6.24-4.38-10.1-0.653-3.88-0.357-7.98 0.86-12.3zm-8.55 80.6c-0.687 2.47-0.858 4.81-0.494 7.04 0.367 2.23 1.2 4.19 2.52 5.9 1.31 1.69 3.01 3.02 5.1 3.96 2.08 0.938 4.47 1.41 7.21 1.41 2.59 0 5.23-0.469 7.9-1.41 2.68-0.939 5.12-2.26 7.32-3.96 2.2-1.71 4.15-3.67 5.82-5.9 1.67-2.23 2.87-4.57 3.56-7.04l7.12-25.3c0.694-2.46 0.849-4.81 0.491-7.04-0.362-2.23-1.2-4.2-2.52-5.89-1.32-1.7-3.02-3.02-5.1-3.96-2.09-0.936-4.49-1.41-7.2-1.41-2.6 0-5.2 0.471-7.8 1.41-2.62 0.942-5.01 2.2-7.18 3.79-2.18 1.58-4.08 3.43-5.73 5.54-1.65 2.12-2.88 4.4-3.69 6.86z"/>
	<path d="m463 275c1.22-4.34 3.24-8.45 6.06-12.3 2.82-3.87 6.18-7.24 10.1-10.1 3.89-2.86 8.08-5.13 12.6-6.77 4.46-1.64 9.06-2.46 13.8-2.46 4.57 0 8.67 0.82 12.3 2.46 3.61 1.64 6.52 3.9 8.75 6.77 2.22 2.88 3.68 6.26 4.38 10.1 0.71 3.87 0.449 7.98-0.77 12.3l-3.55 12.7c-0.526 1.87-1.66 3.46-3.37 4.75-1.73 1.29-3.58 1.93-5.56 1.93h-46l-1.68 5.98c-0.706 2.47-0.838 4.81-0.403 7.04 0.413 2.23 1.25 4.19 2.51 5.9 1.25 1.69 2.95 3.02 5.11 3.96 2.14 0.938 4.5 1.41 7.1 1.41 3.96 0 7.78-0.97 11.5-2.9 3.69-1.94 6.8-4.54 9.33-7.83l0.338-0.528c0.857-1.28 1.98-2.31 3.36-3.08 1.39-0.76 2.83-1.14 4.31-1.14 1.97 0 3.46 0.679 4.44 2.03 0.977 1.35 1.22 2.91 0.728 4.66-0.23 0.819-0.642 1.64-1.25 2.46l-0.571 0.702c-4.18 5.63-9.47 10.2-15.9 13.7-6.44 3.52-13.1 5.28-20 5.28-4.57 0-8.66-0.823-12.3-2.47-3.62-1.64-6.54-3.89-8.76-6.77-2.22-2.87-3.68-6.24-4.38-10.1-0.706-3.88-0.443-7.98 0.777-12.3zm12.4 5.98h38.9l1.68-5.98c0.696-2.46 0.824-4.81 0.399-7.04-0.427-2.23-1.26-4.2-2.51-5.89-1.26-1.7-2.95-3.02-5.11-3.96-2.14-0.936-4.51-1.41-7.1-1.41-2.72 0-5.38 0.471-7.99 1.41-2.61 0.942-5.05 2.26-7.33 3.96-2.26 1.7-4.21 3.67-5.82 5.89-1.62 2.23-2.76 4.58-3.46 7.04z"/>
	<path d="m559 219c0.524-1.87 1.65-3.45 3.37-4.74 1.72-1.29 3.58-1.93 5.55-1.93 1.85 0 3.3 0.646 4.36 1.93 1.06 1.29 1.33 2.87 0.808 4.74l-1.44 5.11c-0.53 1.88-1.65 3.46-3.37 4.75-1.72 1.29-3.58 1.94-5.55 1.94-1.86 0-3.31-0.644-4.37-1.94-1.06-1.28-1.33-2.87-0.799-4.75zm-8.7 31c0.526-1.87 1.66-3.46 3.38-4.75 1.72-1.29 3.58-1.94 5.56-1.94 1.85 0 3.3 0.649 4.36 1.94 1.06 1.29 1.33 2.88 0.804 4.75l-20.8 73.9c-0.524 1.89-1.64 3.47-3.37 4.76-1.73 1.28-3.57 1.94-5.54 1.94-1.86 0-3.32-0.649-4.38-1.94-1.05-1.29-1.32-2.87-0.793-4.76z"/>
	<path d="m585 222c0.522-1.88 1.65-3.46 3.37-4.75 1.72-1.29 3.56-1.94 5.55-1.94 1.85 0 3.3 0.647 4.37 1.94 1.06 1.29 1.32 2.88 0.795 4.75l-28.9 103c-0.526 1.89-1.66 3.47-3.37 4.76-1.73 1.28-3.57 1.94-5.54 1.94-1.85 0-3.32-0.649-4.37-1.94-1.07-1.29-1.34-2.87-0.807-4.76z"/>
	<path d="m611 222c0.532-1.88 1.66-3.46 3.38-4.75 1.72-1.29 3.57-1.94 5.55-1.94 1.85 0 3.3 0.647 4.37 1.94 1.05 1.29 1.32 2.88 0.797 4.75l-28.9 103c-0.528 1.89-1.64 3.47-3.37 4.76-1.73 1.28-3.57 1.94-5.55 1.94-1.85 0-3.31-0.649-4.36-1.94-1.06-1.29-1.34-2.87-0.807-4.76z"/>
	<path d="m622 275c1.22-4.34 3.24-8.45 6.06-12.3 2.81-3.87 6.17-7.24 10.1-10.1 3.89-2.86 8.08-5.13 12.6-6.77 4.47-1.64 9.06-2.46 13.8-2.46 4.57 0 8.66 0.82 12.3 2.46 3.62 1.64 6.54 3.9 8.75 6.77 2.22 2.88 3.69 6.26 4.4 10.1 0.7 3.87 0.442 7.98-0.775 12.3l-3.56 12.7c-0.526 1.87-1.65 3.46-3.38 4.75-1.72 1.29-3.57 1.93-5.54 1.93h-46l-1.69 5.98c-0.685 2.47-0.827 4.81-0.397 7.04 0.423 2.23 1.26 4.19 2.52 5.9 1.25 1.69 2.94 3.02 5.09 3.96 2.16 0.938 4.52 1.41 7.11 1.41 3.95 0 7.78-0.97 11.5-2.9 3.7-1.94 6.81-4.54 9.34-7.83l0.332-0.528c0.854-1.28 1.98-2.31 3.37-3.08 1.39-0.76 2.83-1.14 4.3-1.14 1.98 0 3.46 0.679 4.44 2.03 0.973 1.35 1.22 2.91 0.724 4.66-0.23 0.819-0.647 1.64-1.25 2.46l-0.562 0.702c-4.17 5.63-9.48 10.2-15.9 13.7-6.42 3.52-13.1 5.28-20 5.28-4.58 0-8.67-0.823-12.3-2.47-3.62-1.64-6.54-3.89-8.75-6.77-2.23-2.87-3.68-6.24-4.4-10.1-0.697-3.88-0.438-7.98 0.784-12.3zm12.4 5.98h38.9l1.68-5.98c0.693-2.46 0.816-4.81 0.405-7.04-0.437-2.23-1.27-4.2-2.51-5.89-1.26-1.7-2.95-3.02-5.1-3.96-2.14-0.936-4.52-1.41-7.11-1.41-2.72 0-5.38 0.471-8 1.41-2.6 0.942-5.04 2.26-7.31 3.96-2.27 1.7-4.21 3.67-5.82 5.89-1.62 2.23-2.77 4.58-3.46 7.04z"/>
	<path d="m701 268c1.03-3.64 2.77-6.98 5.23-10 2.46-3.05 5.39-5.66 8.78-7.83 3.4-2.17 7.2-3.84 11.4-5.02 4.22-1.17 8.61-1.76 13.2-1.76 3.68 0.112 7.11 0.646 10.3 1.59 2.73 0.815 5.39 2.14 7.97 3.96 2.58 1.81 4.46 4.36 5.63 7.65 0.401 1.64 0.444 3.05 0.111 4.22-0.487 1.76-1.58 3.28-3.23 4.57-1.67 1.3-3.42 1.94-5.27 1.94-2.23 0-3.88-0.939-4.96-2.82-1.6-2.7-3.39-4.66-5.38-5.9-2.01-1.23-4.98-1.85-8.94-1.85-5.31 0-9.89 1.08-13.7 3.25-3.82 2.17-6.18 4.84-7.07 8.01-1.19 4.22-0.469 7.15 2.16 8.8 2.63 1.65 6.72 2.46 12.3 2.46 4.57 0 8.74 0.559 12.5 1.67 3.76 1.12 6.85 2.79 9.25 5.01 2.41 2.23 4.04 4.99 4.91 8.28 0.868 3.28 0.692 7.09-0.528 11.4-1.25 4.46-3.24 8.33-5.94 11.6-2.71 3.28-5.96 6.04-9.74 8.27-3.78 2.23-7.88 3.87-12.3 4.93-4.43 1.05-8.94 1.58-13.5 1.58-0.986 0-2.77-0.145-5.34-0.436-2.58-0.296-5.29-1.09-8.14-2.38-2.85-1.29-5.54-3.26-8.07-5.9-2.54-2.64-4.26-6.3-5.16-11-0.143-0.819-0.1-1.64 0.127-2.46 0.497-1.76 1.58-3.32 3.26-4.66 1.68-1.35 3.57-2.03 5.67-2.03 1.48 0 2.68 0.385 3.57 1.14 0.899 0.767 1.47 1.8 1.72 3.08 0.618 3.52 2.56 6.28 5.84 8.27 3.27 2 6.88 3 10.8 3 2.6 0 5.16-0.209 7.69-0.62 2.52-0.408 4.78-1.11 6.8-2.11 2.01-0.992 3.77-2.34 5.3-4.04 1.53-1.7 2.64-3.78 3.34-6.25 1.41-5.04 0.486-8.47-2.77-10.3-3.26-1.82-7.6-2.73-13-2.73-4.56 0-8.68-0.406-12.3-1.23-3.66-0.825-6.62-2.2-8.85-4.13-2.23-1.94-3.72-4.46-4.45-7.57-0.74-3.11-0.443-7.01 0.868-11.7z"/>
	<path d="m109 256 163 15.4s5.83 0.925 2.51 5.73c-2.65 3.83-35.5 51.9-35.5 51.9s-2.39 3.86-7.7 1.26c-4.75-2.33-122-70.4-122-70.4s-4.13-2.1-3.71-3.56c0.23-0.803 0.506-0.965 4.12-0.326z"/>
	<path d="m84.3 203 216 23.6s7.4 1.17 3.18 7.28c-3.36 4.86-45 66-45 66s-3.03 4.9-9.78 1.59c-6.03-2.96-165-93.4-165-93.4s-5.24-2.67-4.71-4.52c0.29-1.02 0.642-1.23 5.24-0.419z"/>
	<path d="m332 218c2.68-3.83 6.1-5.74 10.3-5.74 1.17 0 2.36 0.248 3.54 0.752 2.07 0.996 3.28 2.66 3.65 4.99l23.7 147c0.137 1.33 0.443 3.79 0.086 5.12-0.571 2.16-0.735 3.38-2.94 5.37-2.19 1.99-4.84 2.73-7.66 2.73-4.16 0-6.86-1.92-7.51-5.74l-6.64-41.1h-72l-28.7 41.1c-1.33 1.83-2.9 3.24-4.75 4.24-1.85 1.01-3.68 1.5-5.51 1.5-2.83 0-6.61-0.503-8.53-2.99-1.4-1.82-1.4-4.07-0.833-6.24 0.362-1.33 0.963-2.66 1.81-3.98zm2.9 29.2-45.2 65.1h55.7z"/>
	</g><line x1="336" x2="243" y1="245" y2="380" fill="none"/>
	<line x1="334" x2="357" y1="243" y2="383" fill="#fff"/>
	<g fill="#fff">
		<path d="m391 362c0.34-1.25 0.899-2.43 1.68-3.55 0.776-1.11 1.7-2.08 2.77-2.91 1.07-0.827 2.22-1.48 3.44-1.95 1.23-0.472 2.48-0.708 3.76-0.708 1.25 0 2.37 0.236 3.35 0.708 0.986 0.475 1.78 1.12 2.38 1.95 0.602 0.828 0.997 1.8 1.18 2.91 0.185 1.11 0.109 2.3-0.231 3.55l-3.89 14.3c-0.147 0.541-0.467 0.997-0.956 1.37-0.49 0.371-0.988 0.557-1.5 0.557-0.473 0-0.848-0.144-1.12-0.431-0.277-0.286-0.388-0.65-0.336-1.09-1.87 1.15-3.81 1.72-5.84 1.72-1.25 0-2.37-0.236-3.35-0.71-0.986-0.472-1.78-1.12-2.38-1.95-0.604-0.827-0.997-1.8-1.18-2.91-0.187-1.11-0.11-2.3 0.23-3.55zm1.86 7.3c-0.193 0.708-0.233 1.38-0.121 2.02 0.112 0.643 0.338 1.21 0.678 1.7 0.339 0.489 0.801 0.869 1.39 1.14 0.584 0.271 1.23 0.406 1.94 0.406 0.709 0 1.42-0.127 2.13-0.381 0.709-0.252 1.36-0.607 1.96-1.06 0.597-0.456 1.12-0.987 1.57-1.6 0.453-0.608 0.792-1.27 1.02-1.98l2.06-7.55c0.193-0.71 0.232-1.38 0.122-2.03-0.113-0.641-0.339-1.21-0.678-1.7-0.34-0.489-0.803-0.869-1.39-1.14-0.586-0.27-1.23-0.405-1.94-0.405-0.744 0-1.47 0.136-2.19 0.405-0.717 0.271-1.38 0.651-2.01 1.14-0.624 0.489-1.16 1.06-1.6 1.7-0.446 0.643-0.764 1.32-0.958 2.03z"/>
		<path d="m416 355c0.147-0.539 0.457-0.995 0.931-1.37 0.472-0.372 0.979-0.558 1.52-0.558 0.507 0 0.903 0.186 1.19 0.558 0.286 0.372 0.357 0.828 0.21 1.37l-5.8 21.3c-0.147 0.541-0.458 0.997-0.93 1.37-0.473 0.371-0.98 0.557-1.52 0.557-0.506 0-0.903-0.186-1.19-0.557-0.288-0.371-0.358-0.827-0.21-1.37zm2.43-8.92c0.147-0.54 0.457-0.996 0.93-1.37 0.472-0.371 0.979-0.558 1.52-0.558 0.507 0 0.903 0.187 1.19 0.558 0.287 0.372 0.357 0.828 0.211 1.37l-0.4 1.47c-0.147 0.541-0.458 0.997-0.93 1.37-0.474 0.372-0.98 0.557-1.52 0.557-0.506 0-0.904-0.185-1.19-0.557-0.288-0.371-0.358-0.827-0.211-1.37z"/>
		<path d="m442 346c0.146-0.54 0.457-0.996 0.93-1.37 0.473-0.371 0.979-0.558 1.52-0.558 0.507 0 0.903 0.187 1.19 0.558 0.285 0.372 0.357 0.828 0.21 1.37l-6.32 23.2c-0.34 1.25-0.908 2.43-1.7 3.55-0.794 1.11-1.72 2.09-2.77 2.91-1.05 0.828-2.2 1.48-3.44 1.95-1.24 0.474-2.49 0.71-3.74 0.71-1.28 0-2.41-0.236-3.38-0.71-0.97-0.472-1.76-1.12-2.38-1.95-0.62-0.827-1.01-1.8-1.18-2.91-0.17-1.11-0.084-2.3 0.256-3.55l1.99-7.3c0.34-1.25 0.907-2.43 1.7-3.55 0.793-1.11 1.72-2.08 2.77-2.91 1.05-0.827 2.2-1.48 3.44-1.95 1.24-0.472 2.49-0.708 3.74-0.708 0.979 0 1.87 0.151 2.69 0.456 0.812 0.304 1.53 0.727 2.16 1.27zm-17 23.2c-0.193 0.708-0.242 1.38-0.146 2.02 0.096 0.643 0.321 1.21 0.678 1.7 0.356 0.489 0.818 0.869 1.39 1.14 0.566 0.271 1.22 0.406 1.97 0.406 0.709 0 1.43-0.135 2.16-0.406 0.731-0.27 1.4-0.649 2.01-1.14 0.606-0.49 1.14-1.06 1.6-1.7 0.461-0.641 0.789-1.32 0.982-2.02l1.99-7.3c0.193-0.71 0.24-1.38 0.146-2.03-0.096-0.641-0.322-1.21-0.678-1.7-0.357-0.489-0.82-0.869-1.39-1.14-0.569-0.27-1.22-0.405-1.97-0.405-0.71 0-1.43 0.136-2.16 0.405-0.733 0.271-1.4 0.651-2.01 1.14-0.607 0.489-1.14 1.06-1.6 1.7-0.462 0.643-0.79 1.32-0.983 2.03z"/>
		<path d="m446 362c0.341-1.25 0.899-2.43 1.68-3.55s1.7-2.08 2.77-2.91c1.07-0.827 2.22-1.48 3.44-1.95 1.23-0.472 2.48-0.708 3.76-0.708 1.25 0 2.37 0.236 3.35 0.708 0.986 0.475 1.78 1.12 2.38 1.95 0.602 0.828 0.997 1.8 1.18 2.91s0.109 2.3-0.23 3.55l-0.994 3.65c-0.146 0.541-0.458 0.997-0.93 1.37-0.474 0.372-0.98 0.558-1.52 0.558h-12.6l-0.469 1.72c-0.193 0.708-0.233 1.38-0.121 2.02 0.112 0.643 0.338 1.21 0.679 1.7 0.339 0.489 0.801 0.869 1.39 1.14 0.584 0.271 1.23 0.406 1.94 0.406 1.08 0 2.13-0.278 3.14-0.837 1.01-0.557 1.87-1.31 2.56-2.25l0.092-0.152c0.236-0.371 0.544-0.666 0.925-0.887 0.381-0.219 0.774-0.329 1.18-0.329 0.54 0 0.942 0.195 1.21 0.583 0.267 0.389 0.33 0.836 0.192 1.34-0.064 0.236-0.18 0.474-0.346 0.709l-0.155 0.203c-1.15 1.62-2.61 2.94-4.37 3.95-1.76 1.01-3.59 1.52-5.48 1.52-1.25 0-2.37-0.236-3.35-0.71-0.986-0.472-1.78-1.12-2.38-1.95-0.604-0.827-0.997-1.8-1.18-2.91-0.187-1.11-0.109-2.3 0.23-3.55zm3.38 1.72h10.6l0.469-1.72c0.193-0.71 0.232-1.38 0.122-2.03-0.112-0.641-0.339-1.21-0.678-1.7-0.341-0.489-0.803-0.869-1.39-1.14-0.586-0.27-1.23-0.405-1.94-0.405-0.744 0-1.47 0.136-2.19 0.405-0.717 0.271-1.39 0.651-2.01 1.14-0.624 0.489-1.16 1.06-1.6 1.7-0.445 0.643-0.764 1.32-0.957 2.03z"/>
		<path d="m485 362c0.34-1.25 0.898-2.43 1.68-3.55 0.775-1.11 1.7-2.08 2.77-2.91 1.07-0.827 2.22-1.48 3.44-1.95 1.23-0.472 2.48-0.708 3.77-0.708 1.25 0 2.37 0.236 3.35 0.708 0.986 0.475 1.78 1.12 2.38 1.95 0.602 0.828 0.996 1.8 1.18 2.91 0.185 1.11 0.108 2.3-0.232 3.55l-0.993 3.65c-0.147 0.541-0.458 0.997-0.93 1.37-0.474 0.372-0.98 0.558-1.52 0.558h-12.6l-0.469 1.72c-0.193 0.708-0.233 1.38-0.121 2.02 0.112 0.643 0.338 1.21 0.678 1.7 0.34 0.489 0.802 0.869 1.39 1.14 0.584 0.271 1.23 0.406 1.94 0.406 1.08 0 2.13-0.278 3.14-0.837 1.01-0.557 1.87-1.31 2.56-2.25l0.093-0.152c0.235-0.371 0.544-0.666 0.925-0.887 0.381-0.219 0.774-0.329 1.18-0.329 0.54 0 0.941 0.195 1.21 0.583 0.266 0.389 0.329 0.836 0.191 1.34-0.064 0.236-0.18 0.474-0.346 0.709l-0.155 0.203c-1.15 1.62-2.61 2.94-4.37 3.95-1.76 1.01-3.59 1.52-5.48 1.52-1.25 0-2.37-0.236-3.35-0.71-0.986-0.472-1.78-1.12-2.38-1.95-0.604-0.827-0.997-1.8-1.18-2.91-0.187-1.11-0.11-2.3 0.23-3.55zm3.38 1.72h10.6l0.47-1.72c0.193-0.71 0.232-1.38 0.121-2.03-0.113-0.641-0.339-1.21-0.678-1.7-0.34-0.489-0.803-0.869-1.39-1.14-0.586-0.27-1.23-0.405-1.94-0.405-0.744 0-1.47 0.136-2.19 0.405-0.717 0.271-1.38 0.651-2.01 1.14-0.624 0.489-1.16 1.06-1.6 1.7-0.446 0.643-0.765 1.32-0.958 2.03z"/>
		<path d="m512 347c0.147-0.54 0.457-0.996 0.931-1.37 0.473-0.371 0.979-0.557 1.52-0.557 0.508 0 0.904 0.186 1.19 0.557 0.286 0.372 0.357 0.828 0.211 1.37l-1.75 6.44h9.83c0.54 0 0.945 0.186 1.22 0.558 0.27 0.372 0.332 0.828 0.185 1.37-0.138 0.508-0.446 0.955-0.923 1.34-0.478 0.389-0.987 0.583-1.53 0.583h-9.83l-3.37 12.4c-0.193 0.708-0.233 1.38-0.121 2.02 0.111 0.643 0.337 1.21 0.678 1.7 0.339 0.489 0.802 0.869 1.39 1.14 0.584 0.271 1.23 0.406 1.94 0.406 1.08 0 2.14-0.286 3.17-0.861 1.03-0.574 1.91-1.37 2.62-2.38 0.27-0.371 0.587-0.666 0.951-0.887 0.363-0.219 0.748-0.329 1.15-0.329 0.54 0 0.942 0.195 1.21 0.583 0.265 0.389 0.329 0.836 0.191 1.34-0.064 0.236-0.18 0.474-0.346 0.709-1.08 1.49-2.2 2.62-3.36 3.4-1.16 0.777-2.23 1.34-3.22 1.67-0.986 0.339-1.8 0.523-2.43 0.557-0.635 0.034-0.969 0.052-1 0.052-1.25 0-2.37-0.236-3.35-0.71-0.987-0.472-1.78-1.12-2.38-1.95-0.604-0.827-0.998-1.8-1.18-2.91-0.187-1.11-0.109-2.3 0.231-3.55z"/>
		<path d="m544 362c0.341-1.25 0.899-2.43 1.68-3.55s1.7-2.08 2.77-2.91c1.07-0.827 2.22-1.48 3.44-1.95 1.23-0.472 2.48-0.708 3.76-0.708 1.25 0 2.37 0.236 3.35 0.708 0.986 0.475 1.78 1.12 2.38 1.95 0.602 0.828 0.997 1.8 1.18 2.91s0.109 2.3-0.23 3.55l-0.994 3.65c-0.146 0.541-0.458 0.997-0.93 1.37-0.474 0.372-0.98 0.558-1.52 0.558h-12.6l-0.469 1.72c-0.193 0.708-0.233 1.38-0.121 2.02 0.112 0.643 0.338 1.21 0.679 1.7 0.339 0.489 0.801 0.869 1.39 1.14 0.584 0.271 1.23 0.406 1.94 0.406 1.08 0 2.13-0.278 3.14-0.837 1.01-0.557 1.87-1.31 2.56-2.25l0.092-0.152c0.236-0.371 0.544-0.666 0.925-0.887 0.381-0.219 0.774-0.329 1.18-0.329 0.54 0 0.942 0.195 1.21 0.583 0.267 0.389 0.33 0.836 0.192 1.34-0.064 0.236-0.18 0.474-0.346 0.709l-0.155 0.203c-1.15 1.62-2.61 2.94-4.37 3.95-1.76 1.01-3.59 1.52-5.48 1.52-1.25 0-2.37-0.236-3.35-0.71-0.986-0.472-1.78-1.12-2.38-1.95-0.604-0.827-0.997-1.8-1.18-2.91-0.187-1.11-0.109-2.3 0.23-3.55zm3.38 1.72h10.6l0.469-1.72c0.193-0.71 0.232-1.38 0.122-2.03-0.112-0.641-0.339-1.21-0.678-1.7-0.341-0.489-0.803-0.869-1.39-1.14-0.586-0.27-1.23-0.405-1.94-0.405-0.744 0-1.47 0.136-2.19 0.405-0.717 0.271-1.39 0.651-2.01 1.14-0.624 0.489-1.16 1.06-1.6 1.7-0.445 0.643-0.764 1.32-0.957 2.03z"/>
		<path d="m568 362c0.341-1.25 0.899-2.43 1.68-3.55 0.775-1.11 1.7-2.08 2.77-2.91 1.07-0.827 2.22-1.48 3.44-1.95 1.23-0.472 2.48-0.708 3.76-0.708 1.25 0 2.37 0.236 3.35 0.708 0.985 0.475 1.78 1.12 2.38 1.95 0.602 0.828 0.995 1.8 1.18 2.91 0.186 1.11 0.108 2.3-0.232 3.55l-3.89 14.3c-0.147 0.541-0.466 0.997-0.955 1.37s-0.987 0.557-1.49 0.557c-0.541 0-0.946-0.186-1.22-0.557s-0.331-0.827-0.184-1.37l3.89-14.3c0.193-0.71 0.232-1.38 0.122-2.03-0.114-0.641-0.34-1.21-0.679-1.7-0.34-0.489-0.802-0.869-1.39-1.14-0.585-0.27-1.23-0.405-1.94-0.405-0.743 0-1.47 0.136-2.19 0.405-0.716 0.271-1.38 0.651-2.01 1.14s-1.16 1.06-1.6 1.7c-0.445 0.643-0.764 1.32-0.957 2.03l-3.89 14.3c-0.147 0.541-0.466 0.997-0.956 1.37-0.489 0.371-0.987 0.557-1.49 0.557-0.541 0-0.946-0.186-1.22-0.557-0.271-0.371-0.333-0.827-0.186-1.37z"/>
		<path d="m595 347c0.147-0.54 0.457-0.996 0.931-1.37 0.473-0.371 0.979-0.557 1.52-0.557 0.508 0 0.904 0.186 1.19 0.557 0.286 0.372 0.357 0.828 0.211 1.37l-1.75 6.44h9.83c0.54 0 0.945 0.186 1.22 0.558 0.27 0.372 0.332 0.828 0.185 1.37-0.138 0.508-0.446 0.955-0.923 1.34-0.478 0.389-0.987 0.583-1.53 0.583h-9.83l-3.37 12.4c-0.193 0.708-0.233 1.38-0.121 2.02 0.111 0.643 0.337 1.21 0.678 1.7 0.339 0.489 0.802 0.869 1.39 1.14 0.584 0.271 1.23 0.406 1.94 0.406 1.08 0 2.14-0.286 3.17-0.861 1.03-0.574 1.91-1.37 2.62-2.38 0.27-0.371 0.587-0.666 0.951-0.887 0.363-0.219 0.748-0.329 1.15-0.329 0.54 0 0.942 0.195 1.21 0.583 0.265 0.389 0.329 0.836 0.191 1.34-0.064 0.236-0.18 0.474-0.346 0.709-1.08 1.49-2.2 2.62-3.36 3.4-1.16 0.777-2.23 1.34-3.22 1.67-0.986 0.339-1.8 0.523-2.43 0.557-0.635 0.034-0.969 0.052-1 0.052-1.25 0-2.37-0.236-3.35-0.71-0.987-0.472-1.78-1.12-2.38-1.95-0.604-0.827-0.998-1.8-1.18-2.91-0.187-1.11-0.109-2.3 0.231-3.55z"/>
		<path d="m615 355c0.147-0.539 0.457-0.995 0.931-1.37 0.472-0.372 0.979-0.558 1.52-0.558 0.439 0 0.797 0.145 1.07 0.431 0.276 0.288 0.4 0.667 0.373 1.14 1.91-1.18 3.93-1.77 6.06-1.77 1.15 0.101 2.05 0.252 2.69 0.456 0.636 0.202 1.19 0.498 1.66 0.886 0.468 0.389 0.605 0.938 0.412 1.65-0.156 0.575-0.469 1.04-0.936 1.39-0.469 0.354-0.974 0.532-1.51 0.532-0.439 0-0.796-0.118-1.07-0.354-0.716-0.474-1.55-0.71-2.49-0.71-0.743 0-1.46 0.136-2.16 0.405-0.699 0.271-1.36 0.634-1.97 1.09s-1.14 0.988-1.57 1.6-0.768 1.27-0.994 1.98l-3.95 14.5c-0.147 0.541-0.458 0.997-0.931 1.37s-0.979 0.557-1.52 0.557c-0.506 0-0.903-0.186-1.19-0.557-0.288-0.371-0.358-0.827-0.211-1.37l3.99-14.6z"/>
		<path d="m630 362c0.34-1.25 0.898-2.43 1.68-3.55 0.775-1.11 1.7-2.08 2.77-2.91 1.07-0.827 2.22-1.48 3.44-1.95 1.23-0.472 2.48-0.708 3.77-0.708 1.25 0 2.37 0.236 3.35 0.708 0.986 0.475 1.78 1.12 2.38 1.95 0.602 0.828 0.996 1.8 1.18 2.91 0.185 1.11 0.108 2.3-0.232 3.55l-3.89 14.3c-0.147 0.541-0.467 0.997-0.955 1.37-0.49 0.371-0.988 0.557-1.5 0.557-0.473 0-0.848-0.144-1.12-0.431-0.276-0.286-0.388-0.65-0.336-1.09-1.87 1.15-3.81 1.72-5.84 1.72-1.25 0-2.37-0.236-3.35-0.71-0.986-0.472-1.78-1.12-2.38-1.95-0.604-0.827-0.997-1.8-1.18-2.91-0.187-1.11-0.11-2.3 0.23-3.55zm1.86 7.3c-0.193 0.708-0.233 1.38-0.121 2.02 0.112 0.643 0.338 1.21 0.678 1.7 0.34 0.489 0.802 0.869 1.39 1.14 0.584 0.271 1.23 0.406 1.94 0.406s1.42-0.127 2.13-0.381c0.709-0.252 1.36-0.607 1.96-1.06s1.12-0.987 1.57-1.6c0.453-0.608 0.793-1.27 1.02-1.98l2.06-7.55c0.193-0.71 0.232-1.38 0.121-2.03-0.113-0.641-0.339-1.21-0.678-1.7-0.34-0.489-0.803-0.869-1.39-1.14-0.586-0.27-1.23-0.405-1.94-0.405-0.744 0-1.47 0.136-2.19 0.405-0.717 0.271-1.38 0.651-2.01 1.14-0.624 0.489-1.16 1.06-1.6 1.7-0.446 0.643-0.765 1.32-0.958 2.03z"/>
		<path d="m655 355c0.147-0.539 0.457-0.995 0.931-1.37 0.472-0.372 0.979-0.558 1.52-0.558 0.507 0 0.903 0.186 1.19 0.558 0.286 0.372 0.357 0.828 0.21 1.37l-5.8 21.3c-0.147 0.541-0.458 0.997-0.93 1.37-0.474 0.371-0.98 0.557-1.52 0.557-0.506 0-0.903-0.186-1.19-0.557s-0.357-0.827-0.21-1.37zm2.43-8.92c0.146-0.54 0.457-0.996 0.93-1.37 0.473-0.371 0.979-0.558 1.52-0.558 0.507 0 0.903 0.187 1.19 0.558 0.285 0.372 0.357 0.828 0.21 1.37l-0.4 1.47c-0.147 0.541-0.458 0.997-0.93 1.37-0.474 0.372-0.979 0.557-1.52 0.557-0.506 0-0.903-0.185-1.19-0.557-0.288-0.371-0.357-0.827-0.211-1.37z"/>
		<path d="m681 346c0.147-0.54 0.456-0.996 0.931-1.37 0.472-0.371 0.979-0.558 1.52-0.558 0.507 0 0.903 0.187 1.19 0.558 0.287 0.372 0.357 0.828 0.211 1.37l-6.32 23.2c-0.341 1.25-0.908 2.43-1.7 3.55-0.794 1.11-1.72 2.09-2.77 2.91-1.05 0.828-2.2 1.48-3.44 1.95-1.24 0.474-2.49 0.71-3.74 0.71-1.28 0-2.41-0.236-3.38-0.71-0.97-0.472-1.76-1.12-2.38-1.95-0.62-0.827-1.01-1.8-1.18-2.91-0.17-1.11-0.084-2.3 0.256-3.55l1.99-7.3c0.341-1.25 0.908-2.43 1.7-3.55s1.72-2.08 2.77-2.91c1.05-0.827 2.2-1.48 3.44-1.95 1.24-0.472 2.49-0.708 3.74-0.708 0.979 0 1.88 0.151 2.69 0.456 0.812 0.304 1.53 0.727 2.16 1.27zm-17 23.2c-0.193 0.708-0.242 1.38-0.146 2.02 0.096 0.643 0.321 1.21 0.679 1.7 0.355 0.489 0.817 0.869 1.39 1.14 0.566 0.271 1.22 0.406 1.97 0.406 0.709 0 1.43-0.135 2.16-0.406 0.731-0.27 1.4-0.649 2.01-1.14 0.605-0.49 1.14-1.06 1.6-1.7 0.461-0.641 0.789-1.32 0.982-2.02l1.99-7.3c0.193-0.71 0.242-1.38 0.147-2.03-0.097-0.641-0.322-1.21-0.678-1.7s-0.82-0.869-1.39-1.14c-0.569-0.27-1.22-0.405-1.97-0.405-0.71 0-1.43 0.136-2.16 0.405-0.733 0.271-1.4 0.651-2.01 1.14-0.607 0.489-1.14 1.06-1.6 1.7-0.463 0.643-0.789 1.32-0.982 2.03z"/>
		<path d="m686 362c0.341-1.25 0.899-2.43 1.68-3.55s1.7-2.08 2.77-2.91c1.07-0.827 2.22-1.48 3.44-1.95 1.23-0.472 2.48-0.708 3.76-0.708 1.25 0 2.37 0.236 3.35 0.708 0.986 0.475 1.78 1.12 2.38 1.95 0.602 0.828 0.997 1.8 1.18 2.91s0.109 2.3-0.23 3.55l-0.994 3.65c-0.146 0.541-0.458 0.997-0.93 1.37-0.474 0.372-0.98 0.558-1.52 0.558h-12.6l-0.469 1.72c-0.193 0.708-0.233 1.38-0.121 2.02 0.112 0.643 0.338 1.21 0.679 1.7 0.339 0.489 0.801 0.869 1.39 1.14 0.584 0.271 1.23 0.406 1.94 0.406 1.08 0 2.13-0.278 3.14-0.837 1.01-0.557 1.87-1.31 2.56-2.25l0.092-0.152c0.236-0.371 0.544-0.666 0.925-0.887 0.381-0.219 0.774-0.329 1.18-0.329 0.54 0 0.942 0.195 1.21 0.583 0.267 0.389 0.33 0.836 0.192 1.34-0.064 0.236-0.18 0.474-0.346 0.709l-0.155 0.203c-1.15 1.62-2.61 2.94-4.37 3.95-1.76 1.01-3.59 1.52-5.48 1.52-1.25 0-2.37-0.236-3.35-0.71-0.986-0.472-1.78-1.12-2.38-1.95-0.604-0.827-0.997-1.8-1.18-2.91-0.187-1.11-0.109-2.3 0.23-3.55zm3.38 1.72h10.6l0.469-1.72c0.193-0.71 0.232-1.38 0.122-2.03-0.112-0.641-0.339-1.21-0.678-1.7-0.341-0.489-0.803-0.869-1.39-1.14-0.586-0.27-1.23-0.405-1.94-0.405-0.744 0-1.47 0.136-2.19 0.405-0.717 0.271-1.39 0.651-2.01 1.14-0.624 0.489-1.16 1.06-1.6 1.7-0.445 0.643-0.764 1.32-0.957 2.03z"/>
	</g>
</g>
</svg>
