<?xml version="1.0" encoding="UTF-8"?>
<svg width="684" height="181" enable-background="new 0 0 841.89 595.28" version="1.1" viewBox="0 0 684 181" xml:space="preserve" xmlns="http://www.w3.org/2000/svg">
<g transform="matrix(1 0 0 1 -79.7 -204)">
	<g fill="#465861">
		<path d="m399 220c0.529-1.87 1.66-3.45 3.37-4.73 1.71-1.29 3.56-1.93 5.53-1.93 1.85 0 3.3 0.644 4.35 1.93 1.06 1.29 1.33 2.87 0.802 4.73l-8.28 29.5c3.24-1.87 6.66-3.34 10.3-4.39 3.63-1.06 7.23-1.58 10.8-1.58 4.56 0 8.65 0.818 12.3 2.46 3.6 1.64 6.54 3.9 8.82 6.76 2.27 2.88 3.73 6.24 4.38 10.1 0.645 3.86 0.351 7.96-0.861 12.3l-7.1 25.3c-1.22 4.34-3.27 8.42-6.14 12.3-2.87 3.87-6.22 7.23-10 10.1-3.84 2.87-8.01 5.12-12.5 6.76-4.52 1.64-9.08 2.46-13.6 2.46-4.69 0-8.81-0.821-12.3-2.46-3.55-1.64-6.47-3.89-8.74-6.76-2.29-2.86-3.74-6.23-4.37-10.1-0.652-3.87-0.356-7.96 0.858-12.3zm-8.53 80.4c-0.685 2.46-0.856 4.8-0.492 7.02 0.366 2.23 1.2 4.19 2.51 5.89 1.31 1.69 3 3.01 5.09 3.95 2.07 0.937 4.46 1.4 7.19 1.4 2.59 0 5.21-0.467 7.88-1.4 2.67-0.938 5.11-2.26 7.31-3.95 2.2-1.7 4.14-3.66 5.81-5.89 1.67-2.22 2.86-4.56 3.55-7.02l7.1-25.3c0.692-2.46 0.847-4.8 0.49-7.02-0.361-2.22-1.2-4.19-2.51-5.88-1.32-1.7-3.01-3.01-5.08-3.95-2.09-0.934-4.48-1.4-7.19-1.4-2.6 0-5.19 0.47-7.79 1.4-2.62 0.94-5 2.2-7.17 3.78-2.17 1.57-4.07 3.42-5.72 5.53-1.65 2.11-2.87 4.39-3.68 6.85z"/>
		<path d="m463 275c1.22-4.33 3.23-8.43 6.04-12.3 2.81-3.86 6.17-7.23 10.1-10.1 3.89-2.86 8.07-5.12 12.5-6.76 4.46-1.64 9.04-2.46 13.7-2.46 4.56 0 8.65 0.818 12.3 2.46 3.61 1.64 6.51 3.9 8.73 6.76 2.22 2.88 3.67 6.24 4.37 10.1 0.708 3.86 0.447 7.96-0.769 12.3l-3.54 12.6c-0.525 1.87-1.66 3.46-3.36 4.74-1.73 1.29-3.57 1.93-5.54 1.93h-45.9l-1.67 5.97c-0.704 2.46-0.836 4.8-0.402 7.02 0.412 2.23 1.25 4.19 2.5 5.89 1.25 1.69 2.94 3.01 5.1 3.95 2.13 0.937 4.49 1.4 7.09 1.4 3.95 0 7.76-0.967 11.5-2.9 3.69-1.93 6.79-4.54 9.31-7.82l0.336-0.527c0.856-1.28 1.98-2.31 3.35-3.07 1.39-0.759 2.82-1.14 4.3-1.14 1.97 0 3.45 0.677 4.43 2.02 0.975 1.34 1.21 2.9 0.726 4.66-0.229 0.816-0.641 1.64-1.24 2.46l-0.57 0.7c-4.17 5.62-9.45 10.2-15.9 13.7-6.42 3.51-13.1 5.27-20 5.27-4.56 0-8.64-0.821-12.2-2.46-3.62-1.64-6.52-3.89-8.74-6.76-2.21-2.86-3.67-6.23-4.37-10.1-0.704-3.87-0.441-7.96 0.776-12.3zm12.4 5.97h38.8l1.68-5.97c0.694-2.46 0.822-4.8 0.398-7.02-0.426-2.22-1.26-4.19-2.5-5.88-1.26-1.7-2.94-3.01-5.1-3.95-2.14-0.934-4.5-1.4-7.09-1.4-2.71 0-5.37 0.47-7.98 1.4-2.6 0.94-5.04 2.25-7.31 3.95-2.26 1.7-4.2 3.66-5.81 5.88-1.62 2.22-2.76 4.57-3.45 7.02z"/>
		<path d="m558 220c0.523-1.87 1.65-3.45 3.36-4.73 1.71-1.29 3.57-1.93 5.54-1.93 1.84 0 3.3 0.644 4.35 1.93 1.06 1.29 1.32 2.87 0.806 4.73l-1.44 5.1c-0.529 1.87-1.65 3.46-3.36 4.74-1.72 1.29-3.57 1.93-5.54 1.93-1.85 0-3.31-0.642-4.36-1.93-1.06-1.28-1.32-2.86-0.798-4.74zm-8.68 30.9c0.524-1.87 1.65-3.45 3.37-4.74 1.71-1.28 3.57-1.93 5.54-1.93 1.84 0 3.29 0.648 4.35 1.93 1.06 1.29 1.32 2.87 0.802 4.74l-20.7 73.7c-0.523 1.89-1.64 3.46-3.36 4.75-1.73 1.28-3.57 1.93-5.53 1.93-1.85 0-3.31-0.648-4.37-1.93-1.05-1.28-1.32-2.86-0.792-4.75z"/>
		<path d="m584 222c0.521-1.87 1.65-3.46 3.36-4.74 1.72-1.28 3.56-1.93 5.54-1.93 1.85 0 3.29 0.646 4.36 1.93 1.06 1.29 1.32 2.87 0.794 4.74l-28.8 103c-0.525 1.89-1.65 3.46-3.37 4.75-1.72 1.28-3.56 1.93-5.53 1.93-1.85 0-3.31-0.648-4.36-1.93-1.06-1.28-1.33-2.86-0.805-4.75z"/>
		<path d="m610 222c0.531-1.87 1.65-3.46 3.37-4.74 1.72-1.28 3.56-1.93 5.54-1.93 1.85 0 3.29 0.646 4.36 1.93 1.05 1.29 1.32 2.87 0.796 4.74l-28.8 103c-0.527 1.89-1.64 3.46-3.37 4.75-1.73 1.28-3.56 1.93-5.54 1.93-1.84 0-3.31-0.648-4.35-1.93-1.06-1.28-1.33-2.86-0.806-4.75z"/>
		<path d="m621 275c1.21-4.33 3.24-8.43 6.04-12.3 2.81-3.86 6.16-7.23 10-10.1 3.89-2.86 8.06-5.12 12.5-6.76 4.46-1.64 9.04-2.46 13.7-2.46 4.56 0 8.65 0.818 12.3 2.46 3.61 1.64 6.53 3.9 8.73 6.76 2.22 2.88 3.69 6.24 4.39 10.1 0.698 3.86 0.441 7.96-0.774 12.3l-3.55 12.6c-0.525 1.87-1.65 3.46-3.37 4.74-1.72 1.29-3.57 1.93-5.53 1.93h-45.9l-1.69 5.97c-0.683 2.46-0.824 4.8-0.396 7.02 0.422 2.23 1.26 4.19 2.51 5.89 1.24 1.69 2.94 3.01 5.08 3.95 2.15 0.937 4.51 1.4 7.1 1.4 3.94 0 7.77-0.967 11.4-2.9 3.69-1.93 6.8-4.54 9.32-7.82l0.33-0.527c0.853-1.28 1.97-2.31 3.36-3.07 1.39-0.759 2.82-1.14 4.29-1.14 1.97 0 3.45 0.677 4.44 2.02 0.971 1.34 1.21 2.9 0.722 4.66-0.229 0.816-0.646 1.64-1.25 2.46l-0.561 0.7c-4.16 5.62-9.46 10.2-15.9 13.7-6.41 3.51-13.1 5.27-20 5.27-4.57 0-8.65-0.821-12.3-2.46-3.61-1.64-6.52-3.89-8.74-6.76-2.22-2.86-3.67-6.23-4.39-10.1-0.696-3.87-0.438-7.96 0.782-12.3zm12.4 5.97h38.8l1.68-5.97c0.692-2.46 0.814-4.8 0.404-7.02-0.436-2.22-1.26-4.19-2.51-5.88-1.26-1.7-2.94-3.01-5.09-3.95-2.14-0.934-4.51-1.4-7.1-1.4-2.72 0-5.37 0.47-7.98 1.4-2.6 0.94-5.03 2.25-7.3 3.95-2.27 1.7-4.2 3.66-5.81 5.88-1.62 2.22-2.76 4.57-3.46 7.02z"/>
		<path d="m700 268c1.03-3.63 2.76-6.96 5.22-10 2.46-3.05 5.38-5.65 8.76-7.82 3.39-2.16 7.18-3.83 11.4-5 4.21-1.17 8.59-1.75 13.2-1.75 3.67 0.112 7.1 0.644 10.3 1.58 2.72 0.813 5.38 2.13 7.95 3.95 2.57 1.81 4.45 4.36 5.62 7.64 0.401 1.64 0.443 3.04 0.111 4.21-0.486 1.76-1.57 3.28-3.22 4.56-1.66 1.29-3.41 1.93-5.26 1.93-2.22 0-3.87-0.937-4.94-2.81-1.59-2.69-3.38-4.65-5.37-5.88-2.01-1.23-4.97-1.84-8.92-1.84-5.3 0-9.87 1.08-13.7 3.24-3.82 2.17-6.16 4.83-7.06 7.99-1.19 4.21-0.467 7.14 2.16 8.78 2.62 1.64 6.71 2.46 12.3 2.46 4.56 0 8.72 0.557 12.5 1.67 3.76 1.12 6.83 2.78 9.23 5 2.4 2.23 4.03 4.98 4.9 8.26 0.866 3.28 0.69 7.07-0.527 11.4-1.25 4.45-3.23 8.31-5.93 11.6-2.71 3.28-5.95 6.02-9.72 8.25-3.77 2.22-7.87 3.86-12.3 4.91-4.42 1.05-8.92 1.58-13.5 1.58-0.984 0-2.76-0.144-5.33-0.434-2.57-0.296-5.28-1.09-8.12-2.38-2.84-1.29-5.52-3.25-8.05-5.89-2.53-2.63-4.25-6.29-5.14-11-0.142-0.817-0.099-1.64 0.127-2.46 0.496-1.76 1.58-3.31 3.25-4.66 1.67-1.34 3.56-2.02 5.66-2.02 1.48 0 2.67 0.383 3.57 1.14 0.896 0.765 1.46 1.79 1.72 3.07 0.616 3.51 2.56 6.26 5.82 8.25 3.26 2 6.86 2.99 10.8 2.99 2.59 0 5.15-0.208 7.67-0.619 2.51-0.406 4.77-1.11 6.78-2.11 2-0.99 3.76-2.34 5.29-4.04 1.53-1.7 2.64-3.77 3.33-6.23 1.4-5.03 0.484-8.46-2.76-10.3-3.26-1.82-7.58-2.72-13-2.72-4.56 0-8.67-0.406-12.3-1.23-3.65-0.823-6.6-2.2-8.84-4.12-2.23-1.93-3.71-4.45-4.44-7.55-0.738-3.1-0.44-6.99 0.867-11.7z"/>
		</g><path d="m109 256 162 15.4s5.82 0.923 2.51 5.72c-2.64 3.82-35.4 51.8-35.4 51.8s-2.38 3.85-7.69 1.25c-4.74-2.32-122-70.3-122-70.3s-4.12-2.1-3.7-3.56c0.231-0.802 0.507-0.963 4.12-0.325z" fill="#b6ce35"/>
		<path d="m84.8 204 216 23.5s7.38 1.17 3.18 7.26c-3.35 4.85-44.9 65.8-44.9 65.8s-3.02 4.89-9.76 1.59c-6.01-2.95-165-93.2-165-93.2s-5.23-2.67-4.7-4.51c0.29-1.02 0.641-1.22 5.23-0.419z" fill="#fecd60"/>
		<path d="m332 219c2.68-3.82 6.09-5.73 10.2-5.73 1.16 0 2.35 0.247 3.54 0.75 2.06 0.994 3.28 2.66 3.65 4.98l23.6 147c0.136 1.32 0.441 3.78 0.085 5.11-0.57 2.16-0.733 3.37-2.93 5.36-2.18 1.99-4.83 2.72-7.65 2.72-4.15 0-6.85-1.91-7.5-5.72l-6.63-41.1h-71.8l-28.7 41.1c-1.33 1.83-2.9 3.23-4.74 4.23-1.85 1-3.67 1.5-5.5 1.5-2.83 0-6.6-0.502-8.51-2.99-1.4-1.82-1.4-4.06-0.831-6.23 0.362-1.32 0.961-2.65 1.81-3.98zm2.89 29.1-45.1 64.9h55.6z" fill="#465861"/>
		<line x1="336" x2="243" y1="245" y2="380" fill="none"/>
		<line x1="334" x2="357" y1="244" y2="383" fill="none"/>
	
	
		<g fill="#8ca728">
			<path d="m391 362c0.339-1.25 0.871-2.43 1.6-3.54s1.58-2.08 2.59-2.91c0.999-0.825 2.09-1.47 3.26-1.94 1.17-0.473 2.4-0.709 3.68-0.709 1.42 0 2.61 0.304 3.6 0.91 0.98 0.607 1.72 1.4 2.24 2.38 1.04-0.978 2.22-1.77 3.53-2.38 1.31-0.606 2.67-0.91 4.09-0.91 1.25 0 2.34 0.236 3.27 0.709 0.933 0.472 1.67 1.12 2.2 1.94 0.533 0.826 0.868 1.8 1 2.91s0.033 2.29-0.306 3.54l-3.88 14.3c-0.147 0.54-0.465 0.995-0.954 1.36-0.489 0.371-0.986 0.556-1.49 0.556-0.539 0-0.944-0.185-1.21-0.556-0.271-0.37-0.332-0.825-0.185-1.36l3.88-14.3c0.394-1.45 0.293-2.69-0.303-3.72-0.597-1.03-1.62-1.54-3.07-1.54-1.52 0-2.84 0.515-3.96 1.54-1.12 1.03-1.88 2.27-2.28 3.72l-3.88 14.3c-0.147 0.54-0.465 0.995-0.953 1.36-0.49 0.371-0.987 0.556-1.49 0.556-0.54 0-0.945-0.185-1.21-0.556-0.271-0.37-0.332-0.825-0.185-1.36l3.88-14.3c0.394-1.45 0.293-2.69-0.303-3.72-0.597-1.03-1.62-1.54-3.07-1.54-1.52 0-2.84 0.515-3.96 1.54-1.12 1.03-1.88 2.27-2.28 3.72l-3.88 14.3c-0.147 0.54-0.465 0.995-0.953 1.36-0.489 0.371-0.986 0.556-1.49 0.556-0.54 0-0.945-0.185-1.21-0.556-0.271-0.37-0.331-0.825-0.184-1.36z"/>
			<path d="m426 362c0.34-1.25 0.896-2.43 1.67-3.54s1.7-2.08 2.76-2.91c1.07-0.825 2.21-1.47 3.44-1.94 1.22-0.473 2.48-0.709 3.76-0.709 1.25 0 2.36 0.236 3.35 0.709 0.982 0.472 1.78 1.12 2.38 1.94 0.6 0.826 0.994 1.8 1.18 2.91s0.109 2.29-0.23 3.54l-3.88 14.3c-0.146 0.54-0.465 0.995-0.953 1.36-0.49 0.371-0.986 0.556-1.49 0.556-0.473 0-0.846-0.143-1.12-0.429-0.275-0.287-0.389-0.648-0.336-1.09-1.86 1.15-3.8 1.72-5.83 1.72-1.25 0-2.36-0.235-3.35-0.709-0.984-0.471-1.78-1.12-2.38-1.94-0.602-0.825-0.994-1.8-1.18-2.91s-0.109-2.29 0.23-3.54zm1.86 7.28c-0.193 0.708-0.234 1.38-0.121 2.02 0.111 0.641 0.336 1.2 0.676 1.69 0.338 0.489 0.799 0.868 1.38 1.14s1.23 0.404 1.94 0.404c0.707 0 1.41-0.126 2.12-0.38 0.711-0.252 1.36-0.605 1.96-1.06 0.596-0.455 1.12-0.986 1.57-1.59s0.791-1.26 1.02-1.97l2.05-7.53c0.193-0.708 0.232-1.38 0.121-2.02s-0.336-1.2-0.676-1.69c-0.34-0.487-0.801-0.867-1.38-1.14-0.584-0.269-1.23-0.404-1.94-0.404-0.742 0-1.47 0.136-2.18 0.404-0.715 0.271-1.38 0.65-2 1.14-0.621 0.489-1.15 1.05-1.6 1.69-0.445 0.641-0.762 1.31-0.955 2.02z"/>
			<path d="m451 355c0.146-0.539 0.457-0.994 0.93-1.36 0.471-0.37 0.977-0.556 1.52-0.556 0.438 0 0.795 0.144 1.07 0.43 0.277 0.286 0.4 0.666 0.373 1.14 1.9-1.18 3.92-1.77 6.04-1.77 1.15 0.102 2.04 0.254 2.68 0.455 0.637 0.203 1.19 0.498 1.65 0.885 0.469 0.389 0.605 0.936 0.412 1.64-0.156 0.574-0.467 1.04-0.934 1.39-0.467 0.354-0.971 0.53-1.51 0.53-0.439 0-0.795-0.117-1.07-0.354-0.715-0.472-1.54-0.708-2.49-0.708-0.742 0-1.46 0.136-2.16 0.404-0.697 0.271-1.35 0.632-1.96 1.09-0.613 0.455-1.14 0.986-1.57 1.59s-0.766 1.26-0.992 1.97l-3.94 14.5c-0.146 0.54-0.457 0.995-0.928 1.36-0.473 0.371-0.979 0.556-1.52 0.556-0.506 0-0.902-0.185-1.19-0.556-0.287-0.37-0.357-0.825-0.211-1.36l3.98-14.6z"/>
			<path d="m466 362c0.34-1.25 0.896-2.43 1.67-3.54 0.773-1.11 1.7-2.08 2.76-2.91 1.07-0.825 2.21-1.47 3.44-1.94 1.22-0.473 2.48-0.709 3.76-0.709 1.25 0 2.36 0.236 3.35 0.709 0.984 0.472 1.78 1.12 2.38 1.94 0.602 0.826 0.994 1.8 1.18 2.91s0.109 2.29-0.23 3.54l-3.88 14.3c-0.146 0.54-0.465 0.995-0.951 1.36-0.49 0.371-0.988 0.556-1.49 0.556-0.473 0-0.846-0.143-1.12-0.429-0.275-0.287-0.387-0.648-0.334-1.09-1.86 1.15-3.81 1.72-5.83 1.72-1.25 0-2.36-0.235-3.35-0.709-0.984-0.471-1.78-1.12-2.38-1.94-0.602-0.825-0.994-1.8-1.18-2.91-0.188-1.11-0.109-2.29 0.23-3.54zm1.86 7.28c-0.193 0.708-0.234 1.38-0.121 2.02 0.111 0.641 0.338 1.2 0.678 1.69 0.338 0.489 0.799 0.868 1.38 1.14s1.23 0.404 1.94 0.404 1.42-0.126 2.12-0.38c0.709-0.252 1.36-0.605 1.96-1.06s1.12-0.986 1.57-1.59c0.451-0.606 0.791-1.26 1.02-1.97l2.05-7.53c0.193-0.708 0.232-1.38 0.121-2.02s-0.338-1.2-0.676-1.69c-0.34-0.487-0.801-0.867-1.38-1.14-0.584-0.269-1.23-0.404-1.94-0.404-0.742 0-1.47 0.136-2.18 0.404-0.715 0.271-1.38 0.65-2 1.14-0.623 0.489-1.15 1.05-1.6 1.69-0.445 0.641-0.762 1.31-0.955 2.02z"/>
			<path d="m492 355c0.146-0.539 0.455-0.994 0.928-1.36 0.471-0.37 0.977-0.556 1.52-0.556 0.504 0 0.9 0.186 1.19 0.556 0.285 0.371 0.355 0.826 0.209 1.36l-5.78 21.2c-0.146 0.54-0.455 0.995-0.928 1.36-0.473 0.371-0.979 0.556-1.52 0.556-0.506 0-0.902-0.185-1.19-0.556-0.287-0.37-0.357-0.825-0.211-1.36zm3.82-10.1c0.314-0.169 0.641-0.252 0.977-0.252 0.406 0 0.744 0.117 1.02 0.353l2.68 2.43c0.463 0.404 0.605 0.927 0.432 1.57-0.146 0.539-0.482 0.994-1 1.37-0.523 0.371-1.04 0.556-1.54 0.556-0.438 0-0.76-0.118-0.965-0.354l-1.8-1.57-2.6 1.57c-0.402 0.236-0.787 0.354-1.16 0.354-0.539 0-0.961-0.185-1.26-0.556-0.305-0.372-0.383-0.827-0.236-1.37 0.174-0.64 0.604-1.16 1.29-1.57z"/>
			<path d="m498 362c0.35-1.28 0.92-2.48 1.71-3.59 0.791-1.11 1.73-2.07 2.81-2.88 1.08-0.809 2.25-1.45 3.5-1.92 1.26-0.473 2.53-0.709 3.81-0.709 0.236 0 0.688 0.044 1.36 0.127 0.668 0.084 1.37 0.312 2.12 0.683 0.74 0.371 1.42 0.935 2.04 1.69s1.02 1.81 1.19 3.16c0.027 0.27 0.014 0.505-0.041 0.708-0.146 0.54-0.457 0.994-0.928 1.36-0.473 0.371-0.979 0.556-1.52 0.556-0.404 0-0.736-0.109-0.998-0.329-0.26-0.219-0.406-0.514-0.441-0.885-0.195-1.01-0.654-1.8-1.37-2.38-0.721-0.573-1.6-0.859-2.65-0.859-0.742 0-1.47 0.136-2.18 0.404-0.715 0.271-1.38 0.65-2 1.14-0.621 0.489-1.15 1.05-1.6 1.69-0.445 0.641-0.762 1.31-0.955 2.02l-1.98 7.28c-0.193 0.708-0.234 1.38-0.121 2.02 0.111 0.641 0.336 1.2 0.676 1.69 0.338 0.489 0.799 0.868 1.38 1.14s1.23 0.404 1.94 0.404c1.08 0 2.13-0.286 3.16-0.859 1.03-0.572 1.91-1.36 2.62-2.38 0.27-0.37 0.586-0.665 0.949-0.885 0.363-0.219 0.746-0.329 1.15-0.329 0.539 0 0.941 0.194 1.21 0.582s0.33 0.834 0.193 1.34c-0.064 0.236-0.18 0.472-0.346 0.707-1.08 1.48-2.2 2.61-3.35 3.39-1.15 0.775-2.22 1.33-3.21 1.67-0.986 0.337-1.8 0.521-2.43 0.556-0.633 0.033-0.965 0.051-0.998 0.051-1.25 0-2.36-0.235-3.35-0.709-0.984-0.471-1.78-1.12-2.38-1.94-0.602-0.825-0.994-1.8-1.18-2.91s-0.109-2.29 0.23-3.54z"/>
			<path d="m525 346c0.146-0.539 0.455-0.994 0.928-1.36 0.471-0.37 0.977-0.556 1.52-0.556 0.504 0 0.9 0.186 1.19 0.556 0.285 0.371 0.355 0.826 0.209 1.36l-2.31 8.49c0.889-0.539 1.83-0.961 2.82-1.26 0.992-0.303 1.98-0.455 2.96-0.455 1.25 0 2.36 0.236 3.35 0.709 0.984 0.472 1.78 1.12 2.38 1.94 0.6 0.826 0.994 1.8 1.18 2.91s0.109 2.29-0.23 3.54l-3.88 14.3c-0.146 0.54-0.465 0.995-0.953 1.36-0.488 0.371-0.986 0.556-1.49 0.556-0.539 0-0.943-0.185-1.21-0.556-0.27-0.37-0.33-0.825-0.184-1.36l3.88-14.3c0.193-0.708 0.23-1.38 0.121-2.02-0.113-0.64-0.338-1.2-0.678-1.69-0.34-0.487-0.801-0.867-1.38-1.14-0.584-0.269-1.23-0.404-1.94-0.404-0.742 0-1.46 0.136-2.16 0.404-0.697 0.271-1.35 0.632-1.96 1.09-0.613 0.455-1.14 0.986-1.57 1.59s-0.766 1.26-0.992 1.97l-3.94 14.5c-0.146 0.54-0.465 0.995-0.953 1.36-0.49 0.371-0.986 0.556-1.49 0.556-0.539 0-0.943-0.185-1.21-0.556-0.27-0.37-0.332-0.825-0.186-1.36l3.98-14.6z"/>
			<path d="m545 362c0.34-1.25 0.896-2.43 1.67-3.54s1.7-2.08 2.76-2.91c1.07-0.825 2.21-1.47 3.44-1.94 1.22-0.473 2.48-0.709 3.76-0.709 1.25 0 2.36 0.236 3.35 0.709 0.982 0.472 1.78 1.12 2.38 1.94 0.6 0.826 0.994 1.8 1.18 2.91s0.109 2.29-0.23 3.54l-0.992 3.64c-0.146 0.54-0.455 0.995-0.928 1.36-0.473 0.371-0.979 0.556-1.52 0.556h-12.5l-0.467 1.72c-0.193 0.708-0.234 1.38-0.121 2.02 0.111 0.641 0.336 1.2 0.676 1.69 0.338 0.489 0.799 0.868 1.38 1.14s1.23 0.404 1.94 0.404c1.08 0 2.12-0.277 3.13-0.834 1.01-0.557 1.86-1.31 2.56-2.25l0.09-0.151c0.236-0.37 0.543-0.665 0.924-0.885 0.381-0.219 0.771-0.329 1.18-0.329 0.539 0 0.941 0.194 1.21 0.582s0.33 0.834 0.193 1.34c-0.064 0.236-0.18 0.472-0.346 0.707l-0.156 0.203c-1.15 1.62-2.6 2.93-4.36 3.94-1.76 1.01-3.58 1.52-5.47 1.52-1.25 0-2.36-0.235-3.35-0.709-0.984-0.471-1.78-1.12-2.38-1.94-0.602-0.825-0.994-1.8-1.18-2.91s-0.109-2.29 0.23-3.54zm3.38 1.72h10.6l0.467-1.72c0.193-0.708 0.232-1.38 0.121-2.02s-0.336-1.2-0.676-1.69c-0.34-0.487-0.801-0.867-1.38-1.14-0.584-0.269-1.23-0.404-1.94-0.404-0.742 0-1.47 0.136-2.18 0.404-0.715 0.271-1.38 0.65-2 1.14-0.621 0.489-1.15 1.05-1.6 1.69-0.445 0.641-0.762 1.31-0.955 2.02zm5.99-16.2c-0.121-0.304-0.131-0.64-0.029-1.01 0.137-0.505 0.441-0.943 0.914-1.31 0.471-0.37 0.994-0.557 1.57-0.557 0.709 0 1.17 0.304 1.37 0.911l1.09 3.59c0.088 0.303 0.08 0.641-0.021 1.01-0.139 0.506-0.434 0.944-0.889 1.31-0.455 0.371-0.969 0.557-1.54 0.557-0.742 0-1.2-0.304-1.37-0.91z"/>
			<path d="m570 355c0.146-0.539 0.457-0.994 0.93-1.36 0.471-0.37 0.977-0.556 1.52-0.556 0.438 0 0.795 0.144 1.07 0.43 0.277 0.286 0.4 0.666 0.373 1.14 1.9-1.18 3.92-1.77 6.04-1.77 1.15 0.102 2.04 0.254 2.68 0.455 0.637 0.203 1.19 0.498 1.65 0.885 0.469 0.389 0.605 0.936 0.412 1.64-0.156 0.574-0.467 1.04-0.934 1.39-0.467 0.354-0.971 0.53-1.51 0.53-0.439 0-0.795-0.117-1.07-0.354-0.715-0.472-1.54-0.708-2.49-0.708-0.742 0-1.46 0.136-2.16 0.404-0.697 0.271-1.35 0.632-1.96 1.09-0.613 0.455-1.14 0.986-1.57 1.59s-0.766 1.26-0.992 1.97l-3.94 14.5c-0.146 0.54-0.457 0.995-0.928 1.36-0.473 0.371-0.979 0.556-1.52 0.556-0.506 0-0.902-0.185-1.19-0.556-0.287-0.37-0.357-0.825-0.211-1.36l3.98-14.6z"/>
			<path d="m585 362c0.34-1.25 0.896-2.43 1.67-3.54 0.773-1.11 1.7-2.08 2.76-2.91 1.07-0.825 2.21-1.47 3.44-1.94 1.22-0.473 2.48-0.709 3.76-0.709 1.25 0 2.36 0.236 3.35 0.709 0.984 0.472 1.78 1.12 2.38 1.94 0.602 0.826 0.994 1.8 1.18 2.91s0.109 2.29-0.23 3.54l-0.99 3.64c-0.146 0.54-0.457 0.995-0.928 1.36-0.473 0.371-0.979 0.556-1.52 0.556h-12.5l-0.469 1.72c-0.193 0.708-0.234 1.38-0.121 2.02 0.111 0.641 0.338 1.2 0.678 1.69 0.338 0.489 0.799 0.868 1.38 1.14s1.23 0.404 1.94 0.404c1.08 0 2.12-0.277 3.13-0.834 1.01-0.557 1.86-1.31 2.56-2.25l0.092-0.151c0.234-0.37 0.543-0.665 0.924-0.885 0.379-0.219 0.771-0.329 1.18-0.329 0.539 0 0.941 0.194 1.21 0.582 0.264 0.388 0.328 0.834 0.191 1.34-0.064 0.236-0.18 0.472-0.346 0.707l-0.154 0.203c-1.15 1.62-2.6 2.93-4.36 3.94-1.76 1.01-3.58 1.52-5.47 1.52-1.25 0-2.36-0.235-3.35-0.709-0.984-0.471-1.78-1.12-2.38-1.94-0.602-0.825-0.994-1.8-1.18-2.91-0.188-1.11-0.109-2.29 0.23-3.54zm3.38 1.72h10.6l0.469-1.72c0.193-0.708 0.232-1.38 0.121-2.02s-0.338-1.2-0.676-1.69c-0.34-0.487-0.801-0.867-1.38-1.14-0.584-0.269-1.23-0.404-1.94-0.404-0.742 0-1.47 0.136-2.18 0.404-0.715 0.271-1.38 0.65-2 1.14-0.623 0.489-1.15 1.05-1.6 1.69-0.445 0.641-0.762 1.31-0.955 2.02z"/>
			<path d="m609 360c0.283-1.04 0.764-2 1.44-2.88 0.676-0.877 1.48-1.63 2.41-2.25 0.928-0.623 1.97-1.1 3.12-1.44 1.15-0.336 2.35-0.506 3.6-0.506 1 0.034 1.94 0.186 2.81 0.455 0.744 0.236 1.47 0.615 2.17 1.14 0.699 0.522 1.21 1.26 1.52 2.2 0.107 0.473 0.115 0.877 0.023 1.21-0.137 0.506-0.434 0.943-0.889 1.31s-0.934 0.556-1.44 0.556c-0.607 0-1.06-0.269-1.35-0.809-0.43-0.774-0.916-1.34-1.46-1.69-0.543-0.354-1.35-0.531-2.43-0.531-1.45 0-2.7 0.312-3.74 0.936s-1.69 1.39-1.94 2.3c-0.33 1.21-0.139 2.06 0.576 2.53 0.713 0.472 1.83 0.708 3.35 0.708 1.25 0 2.38 0.16 3.41 0.48s1.86 0.801 2.51 1.44c0.652 0.641 1.09 1.43 1.32 2.38 0.232 0.944 0.18 2.04-0.16 3.29-0.35 1.28-0.898 2.4-1.64 3.34-0.746 0.943-1.64 1.74-2.67 2.38-1.04 0.641-2.16 1.11-3.37 1.42-1.21 0.304-2.44 0.455-3.69 0.455-0.27 0-0.754-0.043-1.46-0.127-0.701-0.083-1.44-0.312-2.22-0.683-0.775-0.37-1.51-0.935-2.19-1.69-0.688-0.758-1.15-1.81-1.39-3.16-0.037-0.235-0.023-0.471 0.041-0.707 0.137-0.506 0.436-0.952 0.896-1.34 0.459-0.388 0.975-0.582 1.55-0.582 0.406 0 0.73 0.11 0.975 0.329 0.242 0.22 0.396 0.515 0.465 0.885 0.164 1.01 0.689 1.8 1.58 2.38 0.889 0.573 1.87 0.859 2.95 0.859 0.709 0 1.41-0.059 2.1-0.177s1.31-0.32 1.86-0.607c0.549-0.285 1.03-0.673 1.45-1.16 0.42-0.488 0.727-1.09 0.92-1.8 0.395-1.45 0.148-2.44-0.736-2.96-0.889-0.521-2.07-0.783-3.56-0.783-1.25 0-2.37-0.117-3.36-0.354-0.998-0.236-1.8-0.632-2.41-1.19s-1.01-1.28-1.2-2.17c-0.198-0.892-0.11-2.01 0.258-3.36z"/>
		</g>
	
</g>
</svg>
